<svg width="188" height="40" viewBox="0 0 188 40" fill="none" xmlns="http://www.w3.org/2000/svg">
<path fill-rule="evenodd" clip-rule="evenodd" d="M9.40911 12.28V14.7619H0.131836V1.92578H3.25817V12.28H9.40911Z" fill="#87A2B1"/>
<path fill-rule="evenodd" clip-rule="evenodd" d="M14.6763 12.8353C14.9693 12.8353 15.2508 12.8308 15.5171 12.8174C15.7851 12.8052 15.9994 12.7866 16.1591 12.7617V10.6682C16.0386 10.6438 15.8589 10.6192 15.6185 10.5954C15.3789 10.5699 15.1563 10.5568 14.9574 10.5568C14.6763 10.5568 14.4129 10.5735 14.1647 10.6046C13.9191 10.6341 13.7011 10.6938 13.5131 10.7796C13.3261 10.8651 13.1803 10.9835 13.0743 11.1324C12.9673 11.2803 12.9126 11.4644 12.9126 11.6866C12.9126 12.1188 13.0703 12.4196 13.3841 12.5848C13.6968 12.7532 14.1281 12.8353 14.6763 12.8353ZM14.4363 4.75879C15.3179 4.75879 16.0525 4.85193 16.6395 5.03607C17.2278 5.22266 17.6989 5.48837 18.0522 5.83293C18.4074 6.17809 18.6573 6.59965 18.8038 7.09304C18.951 7.58734 19.024 8.13704 19.024 8.74031V14.4848C18.5967 14.5709 18.0018 14.6732 17.2416 14.7898C16.4798 14.906 15.5583 14.966 14.4755 14.966C13.7946 14.966 13.177 14.9109 12.6219 14.7995C12.0675 14.6881 11.5901 14.5061 11.1891 14.2519C10.7894 14.0011 10.4816 13.6697 10.2679 13.2618C10.0549 12.8539 9.94629 12.3538 9.94629 11.7618C9.94629 11.193 10.0711 10.7111 10.318 10.3161C10.5652 9.92098 10.8958 9.60687 11.3103 9.37158C11.7241 9.13752 12.1985 8.96707 12.7332 8.86206C13.2675 8.75705 13.8219 8.70379 14.3951 8.70379C14.7826 8.70379 15.1267 8.72144 15.4286 8.75096C15.7285 8.78262 15.9711 8.82219 16.1591 8.8718V8.61217C16.1591 8.14313 16.0057 7.76692 15.6985 7.48142C15.3907 7.19866 14.8564 7.05682 14.0942 7.05682C13.5879 7.05682 13.0865 7.0903 12.5916 7.15878C12.0975 7.22574 11.6711 7.32162 11.3103 7.44368L10.9297 5.22266C11.1029 5.17274 11.3195 5.12039 11.5802 5.06529C11.841 5.00777 12.1245 4.96028 12.4323 4.91767C12.7398 4.87323 13.0641 4.8358 13.4035 4.80505C13.7446 4.77401 14.088 4.75879 14.4363 4.75879Z" fill="#87A2B1"/>
<path fill-rule="evenodd" clip-rule="evenodd" d="M27.502 9.59315C27.502 8.70376 27.3786 8.07493 27.1316 7.7045C26.8847 7.33499 26.46 7.14902 25.8595 7.14902C25.6725 7.14902 25.4779 7.15876 25.2784 7.17672C25.0783 7.19498 24.8847 7.21629 24.698 7.24216V14.7617H21.7119V5.35199C21.9657 5.29142 22.2621 5.22415 22.6028 5.15689C22.9436 5.08993 23.3044 5.02814 23.6856 4.97122C24.0672 4.91765 24.4557 4.87352 24.8573 4.84247C25.258 4.81142 25.6514 4.79651 26.0412 4.79651C26.8011 4.79651 27.42 4.88508 27.8938 5.06558C28.3676 5.24303 28.7587 5.45791 29.0655 5.70476C29.4929 5.42109 29.9837 5.19737 30.5372 5.03636C31.0926 4.87686 31.6039 4.79651 32.0714 4.79651C32.9125 4.79651 33.6039 4.90456 34.1442 5.12036C34.6848 5.33738 35.117 5.64237 35.437 6.03714C35.757 6.43222 35.9766 6.90308 36.0978 7.44365C36.2199 7.99001 36.2789 8.5948 36.2789 9.26016V14.7617H33.2934V9.59315C33.2934 8.70376 33.1697 8.07493 32.9224 7.7045C32.6755 7.33499 32.2508 7.14902 31.6503 7.14902C31.4899 7.14902 31.2651 7.18554 30.9793 7.25951C30.6926 7.33499 30.4542 7.426 30.2675 7.5374C30.3607 7.8226 30.4196 8.1221 30.4486 8.43561C30.4746 8.75094 30.4884 9.08667 30.4884 9.44552V14.7617H27.502V9.59315Z" fill="#4F667C"/>
<path fill-rule="evenodd" clip-rule="evenodd" d="M44.6941 8.90797C44.6806 8.6733 44.6372 8.44562 44.5638 8.22282C44.4897 7.99971 44.3777 7.80339 44.223 7.62929C44.0689 7.45823 43.875 7.31457 43.6426 7.20469C43.4072 7.09329 43.1171 7.03759 42.7705 7.03759C42.4366 7.03759 42.1499 7.09055 41.9102 7.19495C41.6675 7.30148 41.468 7.43936 41.3087 7.61194C41.1474 7.78513 41.0239 7.9851 40.9373 8.21308C40.8511 8.44228 40.7875 8.6733 40.7464 8.90797H44.6941ZM37.6812 9.96536C37.6812 9.10002 37.8244 8.34396 38.1128 7.69594C38.3992 7.0458 38.7762 6.50827 39.2433 6.07484C39.7112 5.64233 40.2485 5.31452 40.8565 5.09141C41.4646 4.86952 42.0882 4.75903 42.7295 4.75903C44.2265 4.75903 45.4087 5.1815 46.2763 6.02767C47.1454 6.87383 47.5793 8.12054 47.5793 9.76021C47.5793 9.92122 47.5741 10.0984 47.5589 10.2892C47.5458 10.4791 47.5323 10.6505 47.5201 10.7981H40.7462C40.8137 11.3664 41.1005 11.8178 41.6088 12.1499C42.1155 12.4844 42.7963 12.6512 43.6523 12.6512C44.1998 12.6512 44.7368 12.6046 45.2649 12.5111C45.7926 12.4198 46.2233 12.3048 46.5574 12.1684L46.9581 14.4098C46.7971 14.485 46.5844 14.5572 46.3171 14.6326C46.0498 14.7063 45.7528 14.7711 45.4252 14.8265C45.098 14.8825 44.7483 14.9285 44.3733 14.9662C43.999 15.0037 43.6257 15.021 43.2513 15.021C42.3025 15.021 41.4778 14.8923 40.7775 14.6326C40.0769 14.3727 39.4942 14.019 39.0349 13.567C38.5724 13.1172 38.2329 12.5827 38.012 11.966C37.7918 11.3481 37.6812 10.6816 37.6812 9.96536Z" fill="#4F667C"/>
<path fill-rule="evenodd" clip-rule="evenodd" d="M49.0811 5.35199C49.5897 5.21441 50.2442 5.08993 51.0452 4.97122C51.8462 4.85556 52.6887 4.79651 53.5701 4.79651C54.4652 4.79651 55.2099 4.90456 55.8045 5.12036C56.3988 5.33738 56.8702 5.64237 57.2169 6.03714C57.5639 6.43222 57.8121 6.90308 57.9573 7.44396C58.1061 7.99001 58.1789 8.5948 58.1789 9.26016V14.762H55.1931V9.59315C55.1931 8.70376 55.0661 8.07493 54.8112 7.7045C54.5584 7.33499 54.0837 7.14902 53.39 7.14902C53.1763 7.14902 52.9488 7.15876 52.7085 7.17672C52.4688 7.19498 52.2535 7.21629 52.0675 7.24216V14.762H49.0811V5.35199Z" fill="#4F667C"/>
<path fill-rule="evenodd" clip-rule="evenodd" d="M59.9814 2.59185L62.9669 2.14746V5.01863H66.5531V7.31453H62.9669V10.7436C62.9669 11.3234 63.0768 11.7864 63.2984 12.1313C63.5187 12.4782 63.9631 12.6511 64.6305 12.6511C64.9521 12.6511 65.2813 12.6228 65.6221 12.5668C65.9628 12.5111 66.274 12.4347 66.5531 12.334L66.9752 14.485C66.6134 14.6207 66.2144 14.7379 65.7719 14.8368C65.332 14.9348 64.7901 14.9839 64.1498 14.9839C63.3349 14.9839 62.659 14.8825 62.1247 14.6783C61.5904 14.4743 61.164 14.1913 60.8437 13.8278C60.524 13.462 60.3005 13.0206 60.1727 12.5032C60.0453 11.9833 59.9814 11.4096 59.9814 10.7798V2.59185Z" fill="#4F667C"/>
<path fill-rule="evenodd" clip-rule="evenodd" d="M74.2863 8.90797C74.2738 8.6733 74.2297 8.44562 74.1569 8.22282C74.0842 7.99971 73.9709 7.80339 73.8175 7.62929C73.6631 7.45823 73.4688 7.31457 73.2367 7.20469C73.0007 7.09329 72.711 7.03759 72.3633 7.03759C72.0308 7.03759 71.7437 7.09055 71.5024 7.19495C71.262 7.30148 71.0609 7.43936 70.9015 7.61194C70.7402 7.78513 70.6174 7.9851 70.5308 8.21308C70.4439 8.44228 70.38 8.6733 70.3412 8.90797H74.2863ZM67.2744 9.96536C67.2744 9.10002 67.4183 8.34396 67.7057 7.69594C67.9915 7.0458 68.3701 6.50827 68.8373 6.07484C69.3054 5.64233 69.8437 5.31452 70.4491 5.09141C71.0592 4.86952 71.6834 4.75903 72.3251 4.75903C73.8181 4.75903 75.0017 5.1815 75.8699 6.02767C76.7397 6.87383 77.1729 8.12054 77.1729 9.76021C77.1729 9.92122 77.166 10.0984 77.1519 10.2892C77.1394 10.4791 77.1262 10.6505 77.1133 10.7981H70.3412C70.4067 11.3664 70.6938 11.8178 71.2027 12.1499C71.7101 12.4844 72.3909 12.6512 73.2472 12.6512C73.7924 12.6512 74.3324 12.6046 74.8591 12.5111C75.3856 12.4198 75.8175 12.3048 76.15 12.1684L76.5517 14.4098C76.392 14.485 76.1783 14.5572 75.9107 14.6326C75.6437 14.7063 75.3467 14.7711 75.0188 14.8265C74.6922 14.8825 74.3413 14.9285 73.9663 14.9662C73.5936 15.0037 73.2179 15.021 72.8446 15.021C71.8961 15.021 71.0714 14.8923 70.3711 14.6326C69.6692 14.3727 69.0891 14.019 68.6265 13.567C68.1673 13.1172 67.8265 12.5827 67.605 11.966C67.3854 11.3481 67.2744 10.6816 67.2744 9.96536Z" fill="#4F667C"/>
<path fill-rule="evenodd" clip-rule="evenodd" d="M85.8228 8.90797C85.8103 8.6733 85.7662 8.44562 85.6934 8.22282C85.62 7.99971 85.5064 7.80339 85.3527 7.62929C85.1993 7.45823 85.0054 7.31457 84.7713 7.20469C84.5372 7.09329 84.2481 7.03759 83.9008 7.03759C83.5666 7.03759 83.2782 7.09055 83.0389 7.19495C82.7979 7.30148 82.5974 7.43936 82.438 7.61194C82.2784 7.78513 82.1533 7.9851 82.0653 8.21308C81.9797 8.44228 81.9165 8.6733 81.8767 8.90797H85.8228ZM78.811 9.96536C78.811 9.10002 78.9536 8.34396 79.242 7.69594C79.5281 7.0458 79.906 6.50827 80.3732 6.07484C80.8404 5.64233 81.3783 5.31452 81.9864 5.09141C82.5938 4.86952 83.22 4.75903 83.861 4.75903C85.3557 4.75903 86.5393 5.1815 87.4064 6.02767C88.2753 6.87383 88.7079 8.12054 88.7079 9.76021C88.7079 9.92122 88.7016 10.0984 88.6901 10.2892C88.6763 10.4791 88.6618 10.6505 88.6493 10.7981H81.8768C81.9433 11.3664 82.2287 11.8178 82.7384 12.1499C83.2457 12.4844 83.9272 12.6512 84.7822 12.6512C85.328 12.6512 85.8673 12.6046 86.3954 12.5111C86.9222 12.4198 87.3531 12.3048 87.6873 12.1684L88.0883 14.4098C87.9279 14.485 87.7133 14.5572 87.4453 14.6326C87.1793 14.7063 86.8807 14.7711 86.5544 14.8265C86.2275 14.8825 85.8772 14.9285 85.5039 14.9662C85.1295 15.0037 84.7545 15.021 84.3812 15.021C83.4327 15.021 82.6083 14.8923 81.9067 14.6326C81.2058 14.3727 80.6237 14.019 80.1632 13.567C79.7019 13.1172 79.3625 12.5827 79.1416 11.966C78.92 11.3481 78.811 10.6816 78.811 9.96536Z" fill="#87A2B1"/>
<path fill-rule="evenodd" clip-rule="evenodd" d="M93.2373 12.7797C93.7845 12.7797 94.1727 12.7304 94.3998 12.6308C94.626 12.5325 94.7393 12.3405 94.7393 12.0574C94.7393 11.8349 94.5931 11.6404 94.2988 11.4751C94.0051 11.3077 93.5573 11.119 92.9565 10.9093C92.488 10.7486 92.0653 10.5815 91.684 10.4095C91.3035 10.2366 90.9802 10.0287 90.7115 9.78797C90.4448 9.54721 90.2391 9.26018 90.0909 8.92537C89.9438 8.59452 89.871 8.19152 89.871 7.72309C89.871 6.80936 90.2391 6.08647 90.9732 5.55534C91.7081 5.0239 92.7168 4.75879 93.9992 4.75879C94.6402 4.75879 95.2542 4.81114 95.8415 4.91737C96.4298 5.02146 96.897 5.135 97.246 5.26009L96.7232 7.40746C96.3762 7.29605 95.9992 7.19865 95.5913 7.11282C95.1834 7.02577 94.7281 6.98285 94.2181 6.98285C93.2844 6.98285 92.8179 7.22179 92.8179 7.70422C92.8179 7.81562 92.8367 7.91393 92.8745 7.99946C92.9163 8.08652 92.9973 8.16991 93.1165 8.25118C93.2373 8.33245 93.3996 8.41737 93.6077 8.51112C93.8145 8.60426 94.0788 8.70653 94.3998 8.81914C95.0543 9.04316 95.5943 9.26505 96.0223 9.48238C96.4503 9.70092 96.7874 9.93559 97.0346 10.1879C97.2812 10.4412 97.4551 10.7206 97.5561 11.028C97.6549 11.3369 97.7053 11.6946 97.7053 12.0997C97.7053 13.0618 97.3132 13.7896 96.5332 14.283C95.7513 14.7748 94.6458 15.0208 93.2169 15.0208C92.2826 15.0208 91.504 14.948 90.8837 14.7995C90.2608 14.6504 89.8321 14.5274 89.5908 14.4288L90.0909 12.1877C90.5996 12.3715 91.1191 12.5176 91.6531 12.6223C92.1884 12.7273 92.7168 12.7797 93.2373 12.7797" fill="#87A2B1"/>
<path fill-rule="evenodd" clip-rule="evenodd" d="M10.7762 28.2305C10.7762 26.5753 10.5458 25.4038 10.0859 24.7144C9.62493 24.0241 8.83742 23.6801 7.71838 23.6801C7.36973 23.6801 7.01088 23.6978 6.63753 23.7325C6.26485 23.7672 5.90369 23.8061 5.5557 23.853V37.8488H0V20.336C0.472111 20.2218 1.02521 20.101 1.65996 19.975C2.29207 19.848 2.96403 19.733 3.67285 19.6292C4.38134 19.5257 5.10861 19.4466 5.8543 19.3878C6.59901 19.3315 7.33319 19.3014 8.05419 19.3014C9.47053 19.3014 10.6215 19.4685 11.5032 19.8024C12.3858 20.1348 13.1124 20.5314 13.6843 20.9916C14.48 20.4626 15.3936 20.0486 16.4251 19.7503C17.4569 19.4521 18.407 19.3014 19.2782 19.3014C20.845 19.3014 22.1309 19.5029 23.137 19.9062C24.1438 20.308 24.9458 20.8765 25.5434 21.6122C26.1396 22.3473 26.5488 23.2208 26.772 24.2307C26.9969 25.2437 27.1082 26.3699 27.1082 27.6111V37.8488H21.5525V28.2305C21.5525 26.5753 21.3223 25.4038 20.8624 24.7144C20.4028 24.0241 19.614 23.6801 18.4956 23.6801C18.1977 23.6801 17.7799 23.7486 17.2452 23.8868C16.7112 24.0241 16.2697 24.1973 15.9227 24.4039C16.0959 24.9332 16.2072 25.4896 16.2575 26.0759C16.3079 26.6627 16.3319 27.2876 16.3319 27.9554V37.8488H10.7762V28.2305Z" fill="#4F667C"/>
<path fill-rule="evenodd" clip-rule="evenodd" d="M38.1473 34.2633C38.6931 34.2633 39.2146 34.252 39.7121 34.2292C40.2102 34.2063 40.6069 34.1713 40.9055 34.1248V30.2309C40.681 30.1846 40.3465 30.1387 39.8988 30.0918C39.452 30.0468 39.0415 30.023 38.6684 30.023C38.1473 30.023 37.6548 30.0519 37.1945 30.1092C36.7356 30.1667 36.3313 30.2766 35.9836 30.437C35.6346 30.5977 35.3627 30.8156 35.1625 31.092C34.9646 31.368 34.8646 31.7126 34.8646 32.1256C34.8646 32.9304 35.1569 33.4877 35.7413 33.7979C36.3253 34.1083 37.1263 34.2633 38.1473 34.2633ZM37.6992 19.2321C39.3397 19.2321 40.705 19.4052 41.8007 19.7501C42.8934 20.0943 43.7704 20.5899 44.4295 21.2321C45.0867 21.8768 45.5538 22.6578 45.8274 23.5776C46.102 24.4959 46.2386 25.5192 46.2386 26.6445V37.3314C45.4422 37.4927 44.3364 37.6811 42.9194 37.8994C41.5027 38.1191 39.7865 38.229 37.7739 38.229C36.5057 38.229 35.3557 38.1246 34.3246 37.9173C33.2918 37.7107 32.4049 37.3722 31.6588 36.9013C30.9122 36.4305 30.3396 35.815 29.9429 35.0568C29.5449 34.2977 29.3457 33.3669 29.3457 32.2636C29.3457 31.2068 29.5755 30.3119 30.0361 29.5753C30.4954 28.839 31.1113 28.2534 31.8824 27.8176C32.6525 27.3805 33.5344 27.0648 34.53 26.8694C35.5233 26.6746 36.5551 26.5751 37.6241 26.5751C38.3448 26.5751 38.9858 26.6052 39.5441 26.6625C40.1035 26.7203 40.5565 26.7946 40.9055 26.8868V26.4046C40.9055 25.5305 40.6191 24.8301 40.0482 24.3005C39.476 23.7715 38.4817 23.5079 37.0638 23.5079C36.1209 23.5079 35.1865 23.5709 34.2676 23.6978C33.3478 23.8239 32.5537 24.0025 31.8824 24.2308L31.1729 20.0943C31.4959 20.0027 31.8998 19.9062 32.3858 19.8021C32.8701 19.6977 33.3981 19.6064 33.97 19.5258C34.5419 19.4463 35.144 19.3766 35.7778 19.3191C36.4132 19.2616 37.0522 19.2321 37.6992 19.2321Z" fill="#4F667C"/>
<path fill-rule="evenodd" clip-rule="evenodd" d="M61.6012 24.266C61.103 24.1516 60.5187 24.031 59.8477 23.9047C59.1758 23.7781 58.4557 23.7151 57.685 23.7151C57.336 23.7151 56.9206 23.7437 56.4359 23.8009C55.9507 23.8588 55.5836 23.9209 55.3363 23.9896V37.8487H49.7793V20.6817C50.7739 20.3594 51.9482 20.0553 53.3033 19.7689C54.6588 19.4806 56.1689 19.3367 57.8345 19.3367C58.1324 19.3367 58.4929 19.3537 58.915 19.3881C59.3374 19.4225 59.7605 19.4685 60.1832 19.526C60.6049 19.5835 61.0273 19.6538 61.4517 19.733C61.8741 19.8124 62.2336 19.9113 62.5322 20.0258L61.6012 24.266Z" fill="#4F667C"/>
<path fill-rule="evenodd" clip-rule="evenodd" d="M71.1451 34.2633C71.6923 34.2633 72.2138 34.252 72.7116 34.2292C73.2084 34.2063 73.6054 34.1713 73.905 34.1248V30.2309C73.6818 30.1846 73.3457 30.1387 72.8979 30.0918C72.4512 30.0468 72.0416 30.023 71.6673 30.023C71.1451 30.023 70.6539 30.0519 70.1936 30.1092C69.7337 30.1667 69.3304 30.2766 68.9828 30.437C68.6344 30.5977 68.3605 30.8156 68.1623 31.092C67.9645 31.368 67.8644 31.7126 67.8644 32.1256C67.8644 32.9304 68.1564 33.4877 68.7408 33.7979C69.3248 34.1083 70.1265 34.2633 71.1451 34.2633ZM70.6974 19.2321C72.3392 19.2321 73.7048 19.4052 74.8005 19.7501C75.8925 20.0943 76.7703 20.5899 77.4284 21.2321C78.0862 21.8768 78.5543 22.6578 78.8273 23.5776C79.1005 24.4959 79.2371 25.5192 79.2371 26.6445V37.3314C78.4408 37.4927 77.3362 37.6811 75.9176 37.8994C74.5019 38.1191 72.7863 38.229 70.7721 38.229C69.5059 38.229 68.3549 38.1246 67.3238 37.9173C66.2913 37.7107 65.4034 37.3722 64.657 36.9013C63.9117 36.4305 63.3398 35.815 62.9424 35.0568C62.5441 34.2977 62.3452 33.3669 62.3452 32.2636C62.3452 31.2068 62.5747 30.3119 63.0356 29.5753C63.4945 28.839 64.1109 28.2534 64.8806 27.8176C65.6513 27.3805 66.534 27.0648 67.5279 26.8694C68.5222 26.6746 69.5546 26.5751 70.6233 26.5751C71.3446 26.5751 71.9846 26.6052 72.5433 26.6625C73.1037 26.7203 73.5557 26.7946 73.905 26.8868V26.4046C73.905 25.5305 73.6189 24.8301 73.047 24.3005C72.4758 23.7715 71.4812 23.5079 70.0642 23.5079C69.1194 23.5079 68.1863 23.5709 67.2671 23.6978C66.3483 23.8239 65.5525 24.0025 64.8806 24.2308L64.1724 20.0943C64.4957 20.0027 64.8997 19.9062 65.3853 19.8021C65.8693 19.6977 66.398 19.6064 66.9692 19.5258C67.5417 19.4463 68.1435 19.3766 68.7776 19.3191C69.4117 19.2616 70.0521 19.2321 70.6974 19.2321Z" fill="#4F667C"/>
<path fill-rule="evenodd" clip-rule="evenodd" d="M87.656 37.8488C86.3829 35.5513 85.092 32.8619 83.7817 29.7813C82.4713 26.702 81.2302 23.3471 80.0581 19.7159H85.9496C86.1988 20.6129 86.4919 21.5833 86.8296 22.6282C87.1658 23.6752 87.5161 24.7317 87.8776 25.7995C88.2394 26.8697 88.6022 27.9097 88.9647 28.9211C89.3265 29.9326 89.683 30.8506 90.033 31.6785C90.3566 30.8506 90.706 29.9326 91.08 28.9211C91.4543 27.9097 91.8214 26.8697 92.1839 25.7995C92.5457 24.7317 92.896 23.6752 93.2324 22.6282C93.5696 21.5833 93.8623 20.6129 94.1121 19.7159H99.8581C98.6861 23.3471 97.4462 26.702 96.1372 29.7813C94.8285 32.8619 93.5376 35.5513 92.2662 37.8488H87.656Z" fill="#4F667C"/>
<path fill-rule="evenodd" clip-rule="evenodd" d="M101.311 37.8487H106.869V19.7159H101.311V37.8487ZM107.39 14.4753C107.39 15.4189 107.06 16.1603 106.402 16.6991C105.744 17.239 104.968 17.509 104.072 17.509C103.177 17.509 102.4 17.239 101.742 16.6991C101.083 16.1603 100.753 15.4189 100.753 14.4753C100.753 13.5333 101.083 12.7909 101.742 12.2518C102.4 11.7128 103.177 11.4413 104.072 11.4413C104.968 11.4413 105.744 11.7128 106.402 12.2518C107.06 12.7909 107.39 13.5333 107.39 14.4753Z" fill="#4F667C"/>
<path fill-rule="evenodd" clip-rule="evenodd" d="M118.426 38.1936C116.811 38.1708 115.499 38.0092 114.493 37.7106C113.487 37.4123 112.69 36.9929 112.107 36.4514C111.523 35.913 111.124 35.2576 110.913 34.4876C110.702 33.7175 110.596 32.8497 110.596 31.8846V11.924L116.153 11.0979V30.8503C116.153 31.3099 116.189 31.7238 116.264 32.0912C116.339 32.4598 116.482 32.77 116.693 33.0226C116.904 33.2765 117.208 33.4813 117.607 33.6435C118.004 33.8033 118.539 33.9068 119.211 33.9534L118.426 38.1936Z" fill="#4F667C"/>
<path fill-rule="evenodd" clip-rule="evenodd" d="M128.717 38.1936C127.101 38.1708 125.791 38.0092 124.784 37.7106C123.777 37.4123 122.98 36.9929 122.398 36.4514C121.813 35.913 121.416 35.2576 121.205 34.4876C120.994 33.7175 120.888 32.8497 120.888 31.8846V11.924L126.443 11.0979V30.8503C126.443 31.3099 126.479 31.7238 126.555 32.0912C126.629 32.4598 126.772 32.77 126.985 33.0226C127.196 33.2765 127.499 33.4813 127.898 33.6435C128.296 33.8033 128.83 33.9068 129.501 33.9534L128.717 38.1936Z" fill="#4F667C"/>
<path fill-rule="evenodd" clip-rule="evenodd" d="M161.365 34.1593C162.384 34.1593 163.106 34.0683 163.527 33.8845C163.949 33.7 164.161 33.3439 164.161 32.8158C164.161 32.4012 163.888 32.0406 163.341 31.7292C162.794 31.419 161.962 31.0684 160.843 30.6782C159.973 30.3799 159.184 30.0697 158.476 29.7471C157.767 29.426 157.164 29.0406 156.666 28.5932C156.169 28.1437 155.784 27.611 155.51 26.9895C155.238 26.3698 155.102 25.6225 155.102 24.7487C155.102 23.0487 155.784 21.7037 157.152 20.716C158.518 19.7274 160.396 19.2322 162.782 19.2322C163.975 19.2322 165.117 19.3314 166.212 19.5259C167.306 19.7207 168.176 19.9344 168.823 20.1639L167.853 24.1621C167.206 23.9555 166.505 23.7716 165.747 23.6112C164.988 23.4502 164.135 23.3701 163.193 23.3701C161.451 23.3701 160.583 23.8182 160.583 24.7146C160.583 24.9203 160.62 25.106 160.693 25.2667C160.768 25.4277 160.918 25.5814 161.141 25.7306C161.365 25.8818 161.669 26.0423 162.056 26.2157C162.441 26.3905 162.932 26.5816 163.527 26.7898C164.746 27.2059 165.752 27.6192 166.548 28.0225C167.343 28.4282 167.971 28.8665 168.431 29.3362C168.89 29.8068 169.214 30.3291 169.401 30.9019C169.586 31.475 169.681 32.1392 169.681 32.8965C169.681 34.6862 168.954 36.0391 167.499 36.9553C166.045 37.8715 163.988 38.3323 161.328 38.3323C159.588 38.3323 158.141 38.1938 156.984 37.9174C155.829 37.642 155.027 37.4125 154.579 37.2292L155.51 33.0569C156.455 33.402 157.425 33.6717 158.42 33.8668C159.413 34.0634 160.396 34.1593 161.365 34.1593" fill="#4F667C"/>
<path fill-rule="evenodd" clip-rule="evenodd" d="M179.408 34.2633C179.955 34.2633 180.475 34.252 180.975 34.2292C181.471 34.2063 181.868 34.1713 182.168 34.1248V30.2309C181.944 30.1846 181.608 30.1387 181.161 30.0918C180.714 30.0468 180.302 30.023 179.93 30.023C179.408 30.023 178.917 30.0519 178.456 30.1092C177.997 30.1667 177.593 30.2766 177.246 30.437C176.896 30.5977 176.623 30.8156 176.424 31.092C176.227 31.368 176.126 31.7126 176.126 32.1256C176.126 32.9304 176.419 33.4877 177.003 33.7979C177.588 34.1083 178.388 34.2633 179.408 34.2633ZM178.961 19.2321C180.602 19.2321 181.967 19.4052 183.063 19.7501C184.155 20.0943 185.032 20.5899 185.69 21.2321C186.349 21.8768 186.817 22.6578 187.09 23.5776C187.362 24.4959 187.5 25.5192 187.5 26.6445V37.3314C186.703 37.4927 185.598 37.6811 184.181 37.8994C182.765 38.1191 181.048 38.229 179.035 38.229C177.768 38.229 176.618 38.1246 175.586 37.9173C174.553 37.7107 173.665 37.3722 172.919 36.9013C172.174 36.4305 171.602 35.815 171.204 35.0568C170.806 34.2977 170.608 33.3669 170.608 32.2636C170.608 31.2068 170.837 30.3119 171.298 29.5753C171.758 28.839 172.374 28.2534 173.142 27.8176C173.914 27.3805 174.797 27.0648 175.79 26.8694C176.784 26.6746 177.817 26.5751 178.885 26.5751C179.607 26.5751 180.247 26.6052 180.807 26.6625C181.366 26.7203 181.818 26.7946 182.168 26.8868V26.4046C182.168 25.5305 181.881 24.8301 181.309 24.3005C180.738 23.7715 179.744 23.5079 178.327 23.5079C177.381 23.5079 176.448 23.5709 175.529 23.6978C174.611 23.8239 173.815 24.0025 173.142 24.2308L172.435 20.0943C172.759 20.0027 173.162 19.9062 173.648 19.8021C174.131 19.6977 174.659 19.6064 175.231 19.5258C175.804 19.4463 176.406 19.3766 177.04 19.3191C177.673 19.2616 178.314 19.2321 178.961 19.2321Z" fill="#4F667C"/>
<path fill-rule="evenodd" clip-rule="evenodd" d="M138.974 1.32092C138.672 1.32092 138.38 1.35714 138.103 1.42593C139.161 2.51164 140.202 4.28492 141.094 6.95551C141.882 6.37659 142.388 5.48325 142.388 4.47911C142.388 2.73657 140.858 1.32092 138.974 1.32092" fill="#992A76"/>
<path fill-rule="evenodd" clip-rule="evenodd" d="M138.102 1.42603C136.637 1.78184 135.556 3.01425 135.556 4.47951C135.556 6.22266 137.088 7.63739 138.973 7.63739C139.774 7.63739 140.509 7.38324 141.094 6.9556C140.201 4.28501 139.16 2.51173 138.102 1.42603" fill="#D576AC"/>
<path fill-rule="evenodd" clip-rule="evenodd" d="M157.148 7.38997C155.035 7.30535 153.246 8.82266 153.157 10.7783C153.105 11.8832 153.609 12.8922 154.437 13.5755C156.982 11.1837 159.064 10.0673 160.598 9.74553C160.092 8.42302 158.757 7.45206 157.148 7.38997" fill="#D22724"/>
<path fill-rule="evenodd" clip-rule="evenodd" d="M160.598 9.74536C159.065 10.0671 156.983 11.1835 154.438 13.5753C155.076 14.1013 155.903 14.4339 156.822 14.4699C158.938 14.552 160.726 13.0357 160.816 11.0782C160.836 10.6119 160.759 10.1617 160.598 9.74536" fill="#F29325"/>
<path fill-rule="evenodd" clip-rule="evenodd" d="M146.244 6.87513C147.125 7.74199 147.076 8.53215 146.659 9.1899C146.731 9.21425 146.803 9.23282 146.874 9.25869C147.386 9.45045 147.881 9.68573 148.367 9.94079C151.041 8.37326 150.44 5.76021 150.283 5.22938C149.991 4.22585 149.363 3.33252 148.215 3.20468C146.924 3.06375 145.75 3.91691 145.597 5.11006C145.511 5.78577 145.775 6.41857 146.248 6.8727L146.244 6.87513Z" fill="#5567A8"/>
<path fill-rule="evenodd" clip-rule="evenodd" d="M152.422 16.8358C151.862 15.5769 151.005 14.4163 149.85 13.3568C148.715 12.3143 147.464 11.5385 146.1 11.0283C144.814 10.5505 143.504 10.3121 142.167 10.3121C142.082 10.3121 141.999 10.313 141.915 10.3146C140.491 10.3471 139.07 10.6603 137.648 11.253C137.621 11.266 137.592 11.2803 137.564 11.2931L152.152 24.685C152.165 24.6594 152.181 24.6354 152.194 24.6068C152.835 23.2995 153.174 21.9913 153.21 20.6843C153.245 19.3767 152.983 18.095 152.422 16.8358" fill="#4F667C"/>
<mask id="mask0_1409_1122" style="mask-type:alpha" maskUnits="userSpaceOnUse" x="130" y="24" width="23" height="16">
<path fill-rule="evenodd" clip-rule="evenodd" d="M130.788 24.3209H152.938V40H130.788V24.3209Z" fill="white"/>
</mask>
<g mask="url(#mask0_1409_1122)">
<path fill-rule="evenodd" clip-rule="evenodd" d="M136.394 33.5536H147.681C147.681 33.5536 141.987 41.9467 136.394 33.5536ZM152.151 24.3209H131.593C131.059 25.9995 130.788 27.2913 130.788 28.8969C130.788 30.5347 132.59 40.0002 141.884 40.0002C151.176 40.0002 152.938 30.4897 152.938 28.8518C152.938 27.2454 152.672 25.9995 152.151 24.3209Z" fill="#4F667C"/>
</g>
<path fill-rule="evenodd" clip-rule="evenodd" d="M153.712 4.68515C153.57 3.71267 153.409 3.48835 152.949 3.21958C152.349 2.86864 151.554 3.03331 151.175 3.58818C150.794 4.14397 150.974 4.87873 151.574 5.22937C152.793 5.90264 151.49 7.47504 151.476 7.49483C153.046 6.81455 153.852 5.65549 153.712 4.68515" fill="#A762A4"/>
<path fill-rule="evenodd" clip-rule="evenodd" d="M161.653 9.64812C161.336 9.63381 160.986 9.66334 160.598 9.74521C160.759 10.1616 160.836 10.6118 160.815 11.0781C160.726 13.0355 158.938 14.5519 156.822 14.47C155.903 14.4341 155.075 14.1011 154.437 13.5752C154.391 13.6199 154.342 13.6653 154.296 13.7085C154.005 13.9864 153.722 14.2591 153.448 14.5275C153.784 15.0413 154.09 15.5649 154.332 16.1103C154.478 16.4387 154.599 16.7699 154.712 17.1029C156.17 16.2156 157.812 15.4586 159.608 15.0142C164.395 13.8333 164.684 9.76622 161.653 9.64812" fill="#ED7226"/>
<path fill-rule="evenodd" clip-rule="evenodd" d="M135.774 10.0153L136.616 9.59827C136.669 9.57027 136.724 9.5447 136.798 9.51274C138.36 8.86199 139.956 8.50617 141.543 8.43008C141.536 8.40451 141.53 8.38168 141.523 8.35612C141.386 7.86394 141.241 7.39703 141.094 6.95569C140.51 7.38334 139.774 7.63749 138.973 7.63749C137.088 7.63749 135.556 6.22276 135.556 4.4796C135.556 3.01434 136.637 1.78193 138.102 1.42612C137.124 0.420159 136.128 0.00012207 135.226 0.00012207C131.85 0.00164394 129.725 5.85538 134.29 8.85712C134.821 9.20624 135.312 9.59705 135.774 10.0153" fill="#D35E9E"/>
<path fill-rule="evenodd" clip-rule="evenodd" d="M135.695 15.1488C133.72 15.1488 132.12 16.6281 132.12 18.4534C132.12 19.288 132.455 20.0511 133.006 20.6327C134.165 19.2207 135.997 18.3097 138.06 18.3097C138.473 18.3097 138.877 18.345 139.269 18.4147C139.246 16.6077 137.654 15.1488 135.695 15.1488" fill="#ACCD6C"/>
<path fill-rule="evenodd" clip-rule="evenodd" d="M147.911 23.4817L141.027 17.1616C139.427 18.4029 138.409 20.2623 138.409 22.3439C138.409 22.7332 138.457 23.1109 138.528 23.4817H147.911Z" fill="#F29325"/>
<path fill-rule="evenodd" clip-rule="evenodd" d="M144.347 23.4815C144.1 20.8721 141.595 19.3055 141.595 19.3055C140.904 18.8748 140.116 18.5677 139.269 18.4149V18.4536C139.269 20.2783 137.67 21.7579 135.696 21.7579C134.623 21.7579 133.663 21.3223 133.007 20.6329C132.343 21.4422 131.92 22.4211 131.786 23.4815H144.347Z" fill="#38B5AA"/>
<path fill-rule="evenodd" clip-rule="evenodd" d="M138.06 18.3098C135.998 18.3098 134.165 19.2208 133.007 20.6328C133.663 21.3222 134.623 21.7578 135.696 21.7578C137.67 21.7578 139.269 20.2782 139.269 18.4538V18.4151C138.878 18.3451 138.474 18.3098 138.06 18.3098" fill="#CEDF9A"/>
<path fill-rule="evenodd" clip-rule="evenodd" d="M139.704 18.5142C140.078 18.0101 140.522 17.5548 141.028 17.1615L139.124 15.4144C138.712 15.5274 138.339 15.7158 138.008 15.952C138.764 16.5501 139.257 17.4248 139.269 18.415C139.416 18.442 139.56 18.4792 139.704 18.5142" fill="#D22724"/>
</svg>
