<svg width="87" height="15" viewBox="0 0 87 15" fill="none" xmlns="http://www.w3.org/2000/svg">
<path d="M37.0818 7.24002C37.0818 4.91661 38.8192 3.13257 41.1495 3.13257C42.6621 3.13257 43.9703 3.92087 44.5835 5.1448L43.1526 5.99533C42.8052 5.26927 42.0693 4.79214 41.129 4.79214C39.7799 4.79214 38.7375 5.82938 38.7375 7.24002C38.7375 8.65066 39.7595 9.68789 41.129 9.68789C42.0488 9.68789 42.8052 9.21076 43.1731 8.4847L44.6039 9.31448C43.9498 10.5384 42.6416 11.3475 41.1495 11.3475C38.8192 11.3475 37.0818 9.54268 37.0818 7.24002Z" fill="white"/>
<path d="M44.7061 7.24002C44.7061 4.91661 46.5253 3.13257 48.7737 3.13257C51.0426 3.13257 52.8414 4.91661 52.8414 7.24002C52.8414 9.54268 51.0426 11.3475 48.7737 11.3475C46.5253 11.3475 44.7061 9.54268 44.7061 7.24002ZM51.1653 7.24002C51.1653 5.80863 50.1228 4.7714 48.7737 4.7714C47.4247 4.7714 46.3822 5.80863 46.3822 7.24002C46.3822 8.6714 47.4247 9.70863 48.7737 9.70863C50.1228 9.70863 51.1653 8.65066 51.1653 7.24002Z" fill="white"/>
<path d="M60.7111 6.34799V11.14H59.035V6.51394C59.035 5.3315 58.3604 4.70916 57.3179 4.70916C56.2346 4.70916 55.3556 5.37299 55.3556 6.94958V11.14H53.7V3.31926C55.0286 3.31926 55.3556 3.71341 55.3556 4.31501C55.8667 3.50597 56.7047 3.11182 57.7472 3.11182C59.4642 3.13256 60.7111 4.31501 60.7111 6.34799Z" fill="white"/>
<path d="M64.1042 4.95789V8.71268C64.1042 9.70842 64.7583 9.68768 66.0051 9.62545V11.1398C63.4501 11.451 62.428 10.7249 62.428 8.71268V4.95789H61.1812V3.31906H62.428V2.88342C62.428 1.82544 62.8164 1.55576 63.5931 1.28608L64.0837 1.14087V3.31906H65.9847V4.93715H64.1042V4.95789Z" fill="white"/>
<path d="M66.5161 1.07872C66.5161 0.477128 66.9862 0 67.579 0C68.1718 0 68.6419 0.477128 68.6419 1.07872C68.6419 1.65957 68.1718 2.15745 67.579 2.15745C67.0067 2.15745 66.5161 1.65957 66.5161 1.07872ZM66.7614 3.31915H68.4171V11.1192H66.7614V3.31915Z" fill="white"/>
<path d="M76.941 3.31926C76.4504 3.31926 76.1642 3.44372 76.0007 3.63043C75.8372 3.83787 75.7963 4.1283 75.7963 4.46021C75.2035 3.60968 74.3041 3.09106 73.1186 3.09106C70.9519 3.09106 69.2349 4.89585 69.2349 7.11553C69.2349 9.35596 70.9519 11.14 73.1186 11.14C74.3041 11.14 75.2035 10.6214 75.7963 9.77085V10.7873C75.7963 12.1565 74.9378 12.9448 73.507 12.9448C72.1579 12.9448 71.606 12.4054 71.2585 11.7416L70.0525 12.9655C70.7475 13.9613 71.9535 14.4799 73.4661 14.4799C75.4897 14.4799 77.4316 13.3182 77.4316 10.7873V3.31926H76.941ZM73.3639 9.6049C71.9535 9.6049 70.911 8.56766 70.911 7.15702C70.911 5.74638 71.9535 4.70915 73.3639 4.70915C74.7743 4.70915 75.8167 5.74638 75.8167 7.15702C75.8167 8.56766 74.7538 9.6049 73.3639 9.6049Z" fill="white"/>
<path d="M78.29 7.24002C78.29 4.91661 80.1093 3.13257 82.3577 3.13257C84.6266 3.13257 86.4254 4.91661 86.4254 7.24002C86.4254 9.54268 84.6266 11.3475 82.3577 11.3475C80.1093 11.3475 78.29 9.54268 78.29 7.24002ZM84.7697 7.24002C84.7697 5.80863 83.7272 4.7714 82.3782 4.7714C81.0291 4.7714 79.9866 5.80863 79.9866 7.24002C79.9866 8.6714 81.0291 9.70863 82.3782 9.70863C83.7068 9.70863 84.7697 8.65066 84.7697 7.24002Z" fill="white"/>
<path d="M35.9575 6.49303V11.3265H34.3018V6.59675C34.3018 5.49728 33.709 4.89569 32.8096 4.89569C31.8285 4.89569 31.1335 5.53877 31.1335 6.94941V11.3265H29.4778V6.59675C29.4778 5.49728 28.9463 4.89569 28.0265 4.89569C27.0862 4.89569 26.3095 5.53877 26.3095 6.94941V11.3265H24.6538V3.52654C25.7985 3.52654 26.3095 3.77547 26.3095 4.46005C26.8001 3.6925 27.5564 3.31909 28.5171 3.31909C29.5187 3.31909 30.2545 3.77547 30.7042 4.54303C31.2152 3.73399 32.0329 3.31909 33.0549 3.31909C34.7924 3.31909 35.9575 4.54303 35.9575 6.49303Z" fill="white"/>
<path d="M21.9965 10.1441C21.9965 10.5798 21.8943 10.9117 21.7103 11.1399C21.465 11.4511 21.0767 11.534 20.8723 11.534C20.8723 11.534 20.8518 11.534 20.8314 11.534H20.8109H20.7905C20.259 11.534 19.9116 11.0776 19.8911 11.0362L19.8707 11.0154C18.4398 9.27286 14.8832 5.72552 13.207 4.06595C13.2275 4.0452 13.2479 4.0452 13.2684 4.02446C13.3501 3.96222 13.4114 3.89999 13.4932 3.83775C13.5545 3.79626 13.5954 3.75477 13.6567 3.69254C13.718 3.65105 13.7589 3.60956 13.7998 3.56807C13.8407 3.54733 13.8611 3.50584 13.902 3.48509C14.5152 2.96648 15.108 2.4686 15.5168 2.13669C15.5577 2.0952 15.619 2.05371 15.6599 2.01222C15.7008 1.97073 15.7621 1.92924 15.803 1.88775C15.9461 1.76328 16.0278 1.70105 16.0278 1.70105C16.0278 1.70105 16.8659 0.954242 17.9288 1.55584C18.0719 1.63882 18.215 1.78403 18.3785 1.99148C18.3989 2.01222 18.4194 2.03297 18.4398 2.07445L18.4603 2.0952C18.5012 2.13669 18.542 2.19892 18.5829 2.26116C18.6238 2.32339 18.6647 2.38563 18.7056 2.44786C18.726 2.48935 18.7464 2.51009 18.7669 2.55158C18.7873 2.57233 18.8078 2.59307 18.8078 2.63456C18.8282 2.67605 18.8691 2.73828 18.8895 2.77977C18.91 2.82126 18.9304 2.86275 18.9508 2.90424C18.9713 2.92499 18.9713 2.94573 18.9917 2.96648C19.0326 3.02871 19.053 3.09094 19.0939 3.15318C19.0939 3.17392 19.1144 3.17392 19.1144 3.19467C19.2166 3.38137 19.3392 3.58882 19.4619 3.81701C19.4823 3.8585 19.5232 3.92073 19.5436 3.96222C19.5641 4.00371 19.5845 4.06594 19.6254 4.10743C19.6663 4.19041 19.7071 4.27339 19.748 4.35637C19.748 4.37712 19.7685 4.39786 19.7685 4.4186C19.8093 4.48084 19.8298 4.56382 19.8707 4.6468C19.9933 4.87499 20.0955 5.12392 20.1977 5.37286C20.2386 5.47658 20.2999 5.58031 20.3408 5.70478C20.5043 6.05743 20.6474 6.43084 20.7905 6.7835C20.8723 6.9702 20.954 7.17765 21.0153 7.36435C21.0562 7.46807 21.0971 7.55105 21.1175 7.65478C21.1993 7.86222 21.2811 8.06967 21.3424 8.27712C21.3833 8.38084 21.4037 8.46382 21.4446 8.56754C21.4855 8.67127 21.5059 8.75424 21.5468 8.85797C21.5877 8.94095 21.6081 9.04467 21.6286 9.12765C21.649 9.21063 21.6899 9.31435 21.7103 9.39733C21.7308 9.45956 21.7512 9.5218 21.7716 9.58403C21.833 9.74999 21.8739 9.93669 21.9147 10.0819C21.9556 10.0197 21.9761 10.0612 21.9965 10.1441Z" fill="white"/>
<path d="M21.6082 11.9286C21.4242 12.1983 21.2812 12.3227 21.2812 12.3227C21.2812 12.3227 20.6475 13.0488 19.5437 13.0488C19.5437 13.0488 18.8078 13.0696 18.2355 12.6754C18.0311 12.5302 17.4179 12.136 16.5594 11.6797C16.0892 11.4307 15.5169 11.1403 14.9241 10.8914C14.9037 10.8914 14.9037 10.8706 14.8833 10.8706C14.27 10.6009 13.6364 10.352 12.9823 10.1653C12.9823 10.1653 12.9618 10.1653 12.9414 10.1446C12.1033 9.89562 11.2448 9.72966 10.4681 9.72966C7.32022 9.72966 1.80126 12.9243 1.80126 12.9243C1.80126 12.9243 1.63773 13.0281 1.39244 13.0281C1.14716 13.0281 0.697464 12.9036 0.57482 12.3435C0.513498 12.0946 0.840548 11.244 1.69905 9.83338C1.69905 9.83338 1.69905 9.81264 1.71949 9.81264C2.16919 9.06583 2.76197 8.17381 3.51827 7.11583C4.56074 5.64295 5.90982 3.9004 7.64727 1.84668C7.64727 1.84668 8.07653 1.32806 8.83283 1.32806C8.83283 1.32806 9.44605 1.28657 10.0184 1.7637C10.2228 1.92965 11.0813 2.75944 12.3077 3.94189C14.5766 6.16157 18.0924 9.70891 19.4415 11.3892C19.4415 11.3892 19.9525 12.1153 20.7906 12.1153H20.8315C20.8519 12.1153 20.8928 12.1153 20.9132 12.1153C21.0359 12.0946 21.322 12.0738 21.6082 11.9286Z" fill="white"/>
<path opacity="0.2" d="M21.9965 10.1442C21.9965 10.5798 21.8943 10.9117 21.7103 11.1399C21.465 11.4511 21.0767 11.5341 20.8723 11.5341C20.8723 11.5341 20.8518 11.5341 20.8314 11.5341H20.8109H20.7905C20.259 11.5341 19.9116 11.0777 19.8911 11.0362L19.8707 11.0155C18.4398 9.2729 14.8832 5.72556 13.207 4.06599C13.2275 4.04524 13.2479 4.04524 13.2684 4.0245C13.3501 3.96226 13.4114 3.90003 13.4932 3.8378C13.5545 3.79631 13.5954 3.75482 13.6567 3.69258C13.718 3.65109 13.7589 3.6096 13.7998 3.56812C14.9036 4.04524 17.193 5.14471 21.1789 7.59258C21.2606 7.80003 21.3424 8.00748 21.4037 8.21492C21.4446 8.31865 21.465 8.40163 21.5059 8.50535C21.5468 8.60907 21.5672 8.69205 21.6081 8.79578C21.649 8.87875 21.6694 8.98248 21.6899 9.06546C21.7103 9.14844 21.7512 9.25216 21.7716 9.33514C21.7921 9.39737 21.8125 9.45961 21.833 9.52184C21.8943 9.6878 21.9352 9.8745 21.9761 10.0197C21.9556 10.0197 21.9761 10.0612 21.9965 10.1442Z" fill="white"/>
<path opacity="0.2" d="M12.9414 10.1233C12.1033 9.87437 11.2448 9.70841 10.4681 9.70841C7.32022 9.72916 1.80126 12.9238 1.80126 12.9238C1.80126 12.9238 1.63773 13.0276 1.39244 13.0276C1.14716 13.0276 0.697464 12.9031 0.57482 12.343C0.513498 12.0941 0.840548 11.2435 1.69905 9.83288C1.69905 9.83288 1.69905 9.81214 1.71949 9.81214C6.5026 8.15256 12.4304 9.95735 12.9414 10.1233Z" fill="white"/>
</svg>

