<svg width="97" height="72" viewBox="0 0 97 72" fill="none" xmlns="http://www.w3.org/2000/svg">
<path d="M30.7336 12.8902C12.4121 15.5768 3.34623 30.851 2.18137 41.6285C0.758239 54.7848 6.93042 61.7385 18.4473 60.836C30.9339 59.8553 45.297 58.5198 60.7934 60.836C76.295 63.1522 87.8909 65.2753 93.5834 51.1749C99.2759 37.0744 91.7913 10.2141 70.8186 5.49309C55.3697 2.01361 49.8142 10.0941 30.7336 12.8902Z" fill="#F1F1F1"/>
<path d="M73.3062 65.0356C73.3062 65.0356 73.4432 55.4371 70.2333 52.5888C67.0233 49.7405 58.3949 37.0068 65.3735 33.8716C72.3521 30.7364 74.4499 42.2391 78.9249 46.1359C83.3999 50.0327 79.6101 64.6809 79.6101 64.6809L73.3062 65.0356Z" fill="#E4E4E4"/>
<path d="M77.6916 66.9501L77.3753 66.9188C77.3858 66.804 78.5402 55.4735 76.4582 50.3874C75.4936 48.0347 73.575 45.7759 71.5352 43.3815C69.079 40.4967 66.5437 37.518 65.2207 33.9185L65.5159 33.8142C66.8178 37.3615 69.3372 40.3193 71.7724 43.1832C73.828 45.5933 75.7624 47.8729 76.7481 50.2726C78.867 55.4266 77.7074 66.8405 77.6916 66.9501Z" fill="#CACACA"/>
<path d="M70.6604 42.5208C70.3757 41.7487 70.3916 40.095 70.4074 38.3423C70.4232 36.6573 70.439 34.748 70.1069 34.2733L70.3652 34.0959C70.75 34.6541 70.7342 36.4486 70.7184 38.3475C70.7025 39.9959 70.692 41.6965 70.9555 42.4164L70.6604 42.5208Z" fill="#CACACA"/>
<path d="M72.1836 44.1431C71.9359 43.851 70.3915 43.2146 68.7628 42.5416C65.4475 41.1801 62.8911 40.0637 62.6328 39.2134L62.9333 39.1248C63.1704 39.9072 66.4753 41.2636 68.8841 42.2547C70.8975 43.0842 72.1467 43.6058 72.4261 43.9449L72.1836 44.1431Z" fill="#CACACA"/>
<path d="M75.5411 48.5355C75.3461 48.1599 75.2143 46.7619 75.0246 44.4979C74.8612 42.5416 74.6767 40.3298 74.429 39.8916L74.703 39.7351C74.9877 40.2307 75.1563 42.2912 75.3408 44.4718C75.4884 46.2298 75.636 48.0451 75.8204 48.3894L75.5411 48.5355Z" fill="#CACACA"/>
<path d="M76.9958 52.067C76.4634 51.2272 73.8438 50.5699 71.5299 49.9908C69.158 49.3961 66.9179 48.838 66.375 48.045L66.6333 47.8677C67.1129 48.5615 69.4005 49.1353 71.609 49.6883C74.2075 50.3403 76.6637 50.9559 77.2646 51.9001L76.9958 52.067Z" fill="#CACACA"/>
<path d="M77.5598 60.0746C77.3331 58.2383 75.0139 57.1898 73.322 56.4229C72.7264 56.1569 72.2151 55.9221 71.9199 55.703L72.1097 55.4526C72.3785 55.6509 72.8792 55.8752 73.4537 56.136C75.1141 56.8872 77.623 58.0244 77.8707 60.0328L77.5598 60.0746Z" fill="#CACACA"/>
<path d="M77.9498 57.0022L77.6335 56.9813C77.681 56.3032 78.3135 54.8477 78.9829 53.3036C79.6945 51.6552 80.5062 49.7876 80.4482 49.1303L80.7644 49.1042C80.833 49.8346 80.074 51.5821 79.2781 53.4236C78.6456 54.879 77.9972 56.3762 77.9498 57.0022Z" fill="#CACACA"/>
<path d="M76.2473 64.5921C80.0002 59.3494 75.6833 41.9677 84.2327 34.92C92.7767 27.8724 98.8013 31.9361 93.3302 41.9311C87.859 51.9262 85.9984 63.6739 83.0309 64.759C80.0634 65.844 76.2473 64.5921 76.2473 64.5921Z" fill="#E4E4E4"/>
<path d="M79.2832 67.0022L78.9722 66.9448C78.988 66.8613 80.5798 58.5252 83.9848 47.5442C86.2196 40.3349 88.971 36.9389 90.7894 34.6905C91.8015 33.4386 92.5341 32.5309 92.8135 31.4875L93.1192 31.5658C92.824 32.6717 92.0755 33.6003 91.0372 34.8836C89.2345 37.111 86.5095 40.481 84.2905 47.6329C80.8908 58.6034 79.299 66.9239 79.2832 67.0022Z" fill="#CACACA"/>
<path d="M85.8613 43.3135L85.6135 43.1153C86.615 41.8789 88.697 40.9191 90.7157 39.9853C92.7714 39.0359 94.7163 38.1386 95.0589 37.1318L95.3594 37.2309C94.9693 38.363 92.9717 39.2863 90.8528 40.267C88.8657 41.1903 86.8153 42.1398 85.8613 43.3135Z" fill="#CACACA"/>
<path d="M84.2907 47.6381L83.9902 47.5494C84.2169 46.8139 84.1853 44.6177 84.1536 42.2963C84.0957 37.9613 84.1115 34.8418 84.8494 34.2314L85.055 34.4714C84.375 35.0348 84.4277 39.062 84.4699 42.2911C84.5015 44.7377 84.5331 46.8504 84.2907 47.6381Z" fill="#CACACA"/>
<path d="M82.1875 54.8735L81.8818 54.7901C82.2455 53.4911 84.2643 52.1087 86.4042 50.6533C88.2859 49.37 90.2362 48.0398 90.7685 46.8765L91.0584 47.0069C90.4944 48.2484 88.5073 49.6047 86.5887 50.9141C84.5858 52.2704 82.5196 53.6841 82.1875 54.8735Z" fill="#CACACA"/>
<path d="M81.5338 57.3305L81.2281 57.2523C81.5602 55.9429 80.5113 51.8948 79.747 48.9422C79.183 46.7721 78.8668 45.5201 78.9353 45.1445L79.2463 45.1967C79.1883 45.5253 79.6099 47.1477 80.0527 48.864C80.8697 52.02 81.8817 55.9429 81.5338 57.3305Z" fill="#CACACA"/>
<path d="M80.1108 63.1992L79.7998 63.1314C79.9632 62.3906 81.3653 61.6499 82.9887 60.7943C84.5014 59.9962 86.2144 59.0937 86.4991 58.2852L86.7995 58.3895C86.4727 59.3076 84.7755 60.2049 83.1363 61.0708C81.7184 61.822 80.2426 62.5993 80.1108 63.1992Z" fill="#CACACA"/>
<path d="M28.3935 47.419C28.3935 47.419 28.383 42.2128 28.267 37.8934C28.1511 33.5741 32.2834 28.8218 33.2533 26.3595C34.2231 23.8921 33.2058 20.1205 36.7057 18.4512C36.7057 18.4512 34.6501 22.0819 36.5107 23.9651C38.3713 25.8483 35.9889 32.3273 35.6199 35.1078C35.2509 37.8778 33.1321 45.2384 28.3935 47.419Z" fill="#E4E4E4"/>
<path d="M23.4757 55.9897C23.4757 55.9897 20.9457 44.3567 16.9714 39.4166C12.9972 34.4765 13.266 35.2277 7.46278 34.0174C1.66484 32.8072 1.98109 37.017 1.98109 37.017C1.98109 37.017 5.22794 35.1912 7.09909 37.6012C8.97552 40.0113 9.51315 43.1882 13.1869 48.1805C16.8607 53.1728 23.4757 55.9897 23.4757 55.9897Z" fill="#E4E4E4"/>
<path d="M11.1102 20.6943C12.2751 24.9093 21.109 27.1316 23.1383 31.6127C25.1676 36.0937 24.2927 46.9338 24.2927 46.9338C24.2927 46.9338 18.7741 42.2232 18.3998 38.0604C18.0256 33.8976 15.153 32.2439 12.9287 28.008C10.7096 23.7669 11.1102 20.6943 11.1102 20.6943Z" fill="#E4E4E4"/>
<path d="M26.691 66.6004L26.3748 66.6213C26.3695 66.5013 25.5525 54.6075 24.1399 46.9652L24.0292 46.3652C22.6535 38.9107 21.826 34.4088 17.6515 30.4181C13.361 26.3074 10.9891 20.8143 10.968 20.7569L11.2579 20.637C11.279 20.6891 13.6298 26.13 17.8728 30.1938C22.1159 34.2523 22.954 38.7907 24.3402 46.3079L24.4509 46.9078C25.8687 54.5657 26.6857 66.4805 26.691 66.6004Z" fill="#E4E4E4"/>
<path d="M26.0637 62.641C25.6947 58.8277 22.295 54.3675 18.7003 49.6464C16.5603 46.8347 14.3466 43.9342 12.4912 40.8617L12.76 40.7C14.6048 43.7569 16.8133 46.6521 18.948 49.4534C22.5744 54.211 25.9952 58.7077 26.3747 62.6097L26.0637 62.641Z" fill="#CACACA"/>
<path d="M25.3996 55.8595C24.9885 52.6096 26.4749 50.2152 27.9085 47.9042C28.8204 46.4331 29.7639 44.9151 30.2066 43.1884C31.3346 38.7908 32.1885 30.4756 32.1937 30.3921L32.51 30.4234C32.4995 30.5069 31.6456 38.843 30.5123 43.2614C30.059 45.0351 29.0997 46.574 28.1773 48.0659C26.7068 50.4395 25.3153 52.6774 25.7106 55.8178L25.3996 55.8595Z" fill="#CACACA"/>
<path d="M41.6181 50.1785C41.6181 50.1785 40.4533 61.029 39.4518 62.281C38.4556 63.533 35.0823 64.159 35.0823 65.8283C35.0823 67.4976 63.1233 67.2889 63.3341 65.8283C63.5449 64.3676 60.667 63.3243 59.576 62.281C58.4849 61.2377 57.2199 50.1785 57.2199 50.1785H41.6181Z" fill="#414141"/>
<path d="M39.4621 64.5241L39.4463 64.2111C39.5675 64.2059 51.4691 63.5904 59.581 64.2111L59.5546 64.5241C51.4639 63.9086 39.5833 64.5189 39.4621 64.5241Z" fill="#CACACA"/>
<path d="M18.5791 11.4088C16.5551 12.2122 16.2388 50.9298 18.558 53.0164C20.8772 55.1031 78.435 54.6857 79.2783 53.0164C80.1217 51.3471 81.9243 13.1668 78.6248 11.0802C75.3252 8.99354 23.5021 9.44738 18.5791 11.4088Z" fill="#414141"/>
<path d="M20.4766 13.6363C18.8848 14.763 19.4225 45.0871 20.4766 46.3391C21.5308 47.5911 75.2936 47.5911 76.7695 46.3391C78.2453 45.0871 77.8236 14.9456 76.7695 13.6363C75.7153 12.3269 22.1633 12.4417 20.4766 13.6363Z" fill="#E4E4E4"/>
<path d="M55.4751 47.2781C55.4751 47.2781 55.4751 43.2091 56.213 41.7485C56.9509 40.2878 59.7972 35.4886 60.9568 30.4806C62.1164 25.4727 60.7459 12.9528 59.1647 12.9528C57.5834 12.9528 57.6888 22.2384 57.6888 22.2384C57.6888 22.2384 57.7942 10.5532 55.8967 10.5532C53.9992 10.5532 53.8938 21.5081 53.8938 21.5081C53.8938 21.5081 53.9992 8.46655 51.7855 8.46655C49.5717 8.46655 49.6771 21.4037 49.6771 21.4037C49.6771 21.4037 49.5875 10.7619 47.5213 10.7619C45.4551 10.7619 45.8821 27.0377 45.355 31.8369C44.8279 36.6362 47.5213 47.2781 47.5213 47.2781H55.4751Z" fill="white"/>
<path d="M60.2083 33.0889C60.4982 32.2386 60.7512 31.3622 60.9567 30.4806C61.215 29.3642 61.3468 27.8775 61.3784 26.2395C56.4396 27.0376 48.586 30.0789 45.3971 31.3622C45.3813 31.5291 45.3655 31.6856 45.3497 31.8317C45.3286 32.0247 45.3128 32.2334 45.3022 32.442C48.1274 33.4332 54.8952 35.3216 60.2083 33.0889Z" fill="#F1F1F1"/>
<path d="M26.9966 1.78932C26.148 3.1352 25.9583 29.333 26.9966 31.091C28.035 32.849 68.1515 31.6909 69.9278 29.4112C71.7041 27.1316 70.6657 5.15403 69.9278 2.36836C69.1899 -0.406869 28.4777 -0.552933 26.9966 1.78932Z" fill="#CACACA"/>
<path d="M48.6019 24.0694C44.5644 24.0694 27.5975 2.79089 26.8754 1.8832L27.1231 1.69019C27.297 1.90928 44.712 23.7564 48.6019 23.7564C52.4918 23.7564 69.6379 2.49354 69.8065 2.27966L70.0543 2.47268C69.3427 3.35428 52.6393 24.0694 48.6019 24.0694Z" fill="#696969"/>
<path d="M27.1127 31.2005L26.8807 30.9867C26.9598 30.9032 34.9293 22.3375 41.1806 18.0964L41.3598 18.3573C35.1402 22.5775 27.1917 31.1171 27.1127 31.2005Z" fill="#696969"/>
<path d="M69.8119 29.526C62.9439 22.2279 56.8561 17.4965 56.7981 17.4495L56.9931 17.2043C57.0564 17.2513 63.16 21.9984 70.0438 29.3173L69.8119 29.526Z" fill="#696969"/>
<path d="M45.1864 20.5168C43.0781 20.5168 44.6172 25.1596 43.9847 27.3506C43.3522 29.5416 41.4547 31.5239 41.9818 35.1755C42.5089 38.8271 45.4605 41.2268 46.093 42.8961C46.7255 44.5654 46.093 47.278 46.093 47.278H53.156C53.156 47.278 52.7343 44.6697 52.5235 39.2445C52.3127 33.8192 48.1118 32.7759 47.5214 31.9412C46.9364 31.1066 48.6231 28.9156 48.5176 26.0986C48.4122 23.2816 46.2881 20.5168 45.1864 20.5168Z" fill="white"/>
<path d="M49.1184 52.5521C49.0657 52.5521 49.0129 52.5521 48.9602 52.5469C47.8428 52.4582 47.4791 51.6183 47.5055 50.9297C47.5371 50.1107 48.0958 49.2656 48.976 49.2656C49.8088 49.2656 50.4308 49.5525 50.7365 50.069C51.0053 50.5333 50.9842 51.1436 50.6838 51.6653C50.3517 52.2182 49.7667 52.5521 49.1184 52.5521ZM48.976 49.5734C48.2908 49.5734 47.8481 50.2672 47.8217 50.9402C47.8006 51.5192 48.0905 52.1661 48.9866 52.2339C49.0288 52.2391 49.0762 52.2391 49.1184 52.2391C49.656 52.2391 50.1356 51.9626 50.4044 51.4983C50.6522 51.0758 50.6733 50.5854 50.4572 50.215C50.2147 49.8029 49.6876 49.5734 48.976 49.5734Z" fill="#CACACA"/>
<path d="M23.3967 0.986022C28.8836 1.88849 29.5319 5.54011 29.4265 10.1933C29.3264 14.8465 32.1885 17.8826 34.1281 17.8826C34.1281 17.8826 31.5718 18.7955 29.6321 17.8826C27.6871 16.9697 25.7475 19.4997 20.7401 18.2895C15.7328 17.074 11.2315 13.4746 13.382 7.23029C15.5273 0.986022 19.7176 0.375679 23.3967 0.986022Z" fill="#7D7D7D"/>
<path d="M20.8668 8.31533C20.8668 8.31533 22.7643 4.51764 24.6618 6.43213C26.5593 8.34663 21.8788 11.7113 20.9933 13.8501C20.9933 13.8501 16.0598 9.14998 18.0838 6.43213C20.1078 3.71429 20.8668 8.31533 20.8668 8.31533Z" fill="white"/>
<path d="M60.4404 21.9672C60.4404 21.9672 62.3379 18.1695 64.2354 20.084C66.1329 21.9985 61.4524 25.3632 60.5669 27.502C60.5669 27.502 55.6334 22.8018 57.6574 20.084C59.6814 17.3661 60.4404 21.9672 60.4404 21.9672Z" fill="#696969"/>
<path d="M62.9544 14.7785C68.3465 15.6706 68.9843 19.2544 68.8841 23.8293C68.784 28.4043 71.5986 31.3882 73.5067 31.3882C73.5067 31.3882 70.9925 32.2855 69.0844 31.3882C67.1764 30.4909 65.263 32.9793 60.3401 31.7847C55.4171 30.5901 50.9948 27.048 53.1032 20.9133C55.2168 14.7785 59.3386 14.1839 62.9544 14.7785Z" fill="white"/>
<path d="M60.4401 21.9672C60.4401 21.9672 62.3377 18.1695 64.2352 20.084C66.1327 21.9985 61.4522 25.3632 60.5666 27.502C60.5666 27.502 55.6331 22.8018 57.6571 20.084C59.6811 17.3661 60.4401 21.9672 60.4401 21.9672Z" fill="#7D7D7D"/>
<path d="M44.4179 61.4093C44.3841 61.7363 44.332 62.0565 44.2596 62.3678C43.3317 66.3339 39.1696 69.084 31.7438 69.5836C16.7498 70.5914 8.48888 69.6956 5.54657 62.6408C4.88116 61.0462 4.62308 58.9859 4.65948 56.735C4.78178 49.0174 8.344 39.0381 10.7523 37.7818C13.8642 36.158 16.0709 36.998 16.0709 36.998C21.1066 38.0616 29.1411 52.6748 35.4217 53.2346C41.702 53.7947 44.8573 57.0599 44.4179 61.4093Z" fill="#979797"/>
<path d="M11.4309 46.6841C11.4309 46.6841 15.1653 49.6514 16.4666 52.9548C17.7679 56.2582 17.7679 59.1696 20.4838 59.7294C23.1997 60.2891 28.2922 60.6252 33.4412 59.1135C38.5901 57.6017 38.7033 55.8101 33.2716 54.8584C27.8398 53.9068 21.8987 48.8118 20.2014 45.1724C18.504 41.5329 18.5604 40.0774 17.4855 39.1257C16.4105 38.1741 14.826 37.838 13.2418 39.6855C11.6576 41.5329 10.752 44.6126 11.4309 46.6841Z" fill="#696969"/>
<path d="M22.781 36.7793C22.8462 36.6914 22.9267 36.6121 22.9885 36.5232C23.2659 36.1244 22.962 35.6724 22.6158 35.439C22.3806 35.2805 22.3457 35.1544 22.4032 34.8637C22.4487 34.6339 22.5805 34.4816 22.5357 34.242C22.4986 34.0421 22.4101 33.7565 22.2521 33.6265C22.0905 33.4932 21.8525 33.504 21.6661 33.4255C21.2038 33.2306 21.6333 32.8661 21.436 32.5243C21.1405 32.0124 20.2956 32.1352 19.7929 32.0596C19.7965 32.0603 19.7991 32.0592 19.7998 32.0556C19.3681 31.8856 19.2927 31.4368 18.7391 31.528C18.4777 31.5708 18.2964 31.7333 18.0784 31.8604C17.7002 32.0812 17.3817 31.7779 17.0155 31.9141C16.6016 32.0682 16.2714 32.4375 16.1549 32.8592C15.993 33.4464 15.6493 33.2746 15.1816 33.4853C14.9333 33.5973 14.6243 33.6755 14.676 34.0194C14.7036 34.2031 14.8674 34.3609 14.8805 34.5428C14.8969 34.7751 14.6749 34.907 14.5442 35.0799C14.4037 35.2661 14.312 35.5377 14.407 35.761C14.5093 36.0023 14.7957 36.1208 14.8092 36.4148C14.8278 36.8243 14.2457 37.16 14.483 37.6074C14.6399 37.9031 14.9799 37.9031 15.206 38.0922C15.3578 38.2193 15.3363 38.4092 15.3188 38.5792C15.2711 39.0453 15.4899 39.4588 16.0421 39.3511C16.4443 39.2726 16.7381 39.2275 17.0238 39.5701C17.2732 39.8691 17.5182 40.0171 17.9397 39.9818C18.2076 39.9591 18.4559 39.8492 18.7121 39.7783C18.9524 39.7116 19.0263 39.7513 19.2418 39.8172C19.6964 39.9562 19.9596 39.5272 20.3822 39.5326C20.5446 39.5348 20.6512 39.6558 20.8168 39.6832C21.009 39.7149 21.2191 39.6522 21.3836 39.5564C21.5998 39.4303 21.7021 39.2809 21.7756 39.0471C21.839 38.8454 21.8845 38.7737 22.0814 38.6916C22.5805 38.483 22.852 38.2546 22.8193 37.6776C22.8062 37.4492 22.642 37.2663 22.6671 37.0419C22.6788 36.9396 22.7243 36.856 22.781 36.7793Z" fill="#2D2D2D"/>
<path d="M40.9854 70.4606C40.9854 71.2541 33.5377 71.8978 24.3504 71.8978C15.1631 71.8978 7.71545 71.2545 7.71545 70.4606C7.71545 69.6667 15.1631 69.0234 24.3504 69.0234C33.5377 69.0238 40.9854 69.6671 40.9854 70.4606Z" fill="#E4E4E4"/>
<path d="M22.8605 44.0342C22.8605 44.0342 26.0103 47.3188 27.2927 47.6362L25.2368 48.9239L22.502 47.4121C22.5023 47.4121 21.4838 44.7247 22.8605 44.0342Z" fill="#CACACA"/>
<path d="M22.8607 44.034L22.8341 44.0589C22.8344 44.0593 23.6222 44.8809 24.5711 45.7425C25.0455 46.1733 25.5602 46.6145 26.0374 46.9682C26.2762 47.1451 26.5051 47.3 26.7159 47.4213C26.9267 47.5424 27.1185 47.6299 27.2841 47.671L27.2929 47.636L27.2736 47.6058L25.2362 48.8819L22.5203 47.3806L22.5025 47.412L22.5367 47.3994C22.5367 47.3994 22.5352 47.3958 22.5327 47.3889C22.4934 47.2827 22.176 46.3894 22.1763 45.5368C22.1763 45.2295 22.2175 44.9281 22.3259 44.6709C22.4344 44.4137 22.6084 44.2015 22.8774 44.0661L22.8607 44.034L22.8341 44.0589L22.8607 44.034L22.8443 44.002C22.5582 44.1454 22.3714 44.3737 22.2586 44.6431C22.1454 44.9126 22.1035 45.2231 22.1035 45.5368C22.1039 46.4643 22.4679 47.4228 22.4686 47.4249L22.4734 47.4372L25.2387 48.9659L27.3846 47.6216L27.302 47.6011C27.1469 47.5629 26.9598 47.4783 26.7527 47.359C26.0272 46.9419 25.0589 46.1034 24.2745 45.3704C23.8821 45.0037 23.5352 44.6633 23.2866 44.4148C23.1621 44.2905 23.0623 44.1889 22.9935 44.1187C22.9593 44.0834 22.9327 44.056 22.9145 44.0377C22.8967 44.0189 22.8872 44.0092 22.8872 44.0092L22.8687 43.9897L22.8446 44.002L22.8607 44.034Z" fill="#696969"/>
<path d="M24.5295 51.0792C24.5295 51.0792 29.5558 50.3048 32.6491 51.6858C35.7422 53.0668 34.9126 55.3811 33.9316 57.3593C32.9506 59.3375 32.0456 60.0842 32.0456 60.0842L30.1597 59.3004C30.1597 59.3004 30.8386 55.9412 31.9703 54.2612C31.9703 54.2612 27.557 56.5755 25.1804 56.4635C22.8041 56.3514 22.8416 51.9469 22.8416 51.9469L24.5295 51.0792Z" fill="#2D2D2D"/>
<path d="M17.311 40.4605C17.311 40.4605 16.014 41.1412 15.0334 41.5144C14.0527 41.8876 13.751 43.3247 14.3167 44.3697C14.8823 45.415 16.2969 48.0837 16.9004 49.67C17.5039 51.2563 17.853 52.5627 17.853 52.5627C17.853 52.5627 21.1441 53.1881 22.9736 52.5347C24.8031 51.8816 24.5297 51.0791 24.5297 51.0791C24.5297 51.0791 23.3511 46.9826 23.1811 45.8814C23.1811 45.8814 23.6903 44.7428 23.2753 43.7354C22.8604 42.7275 21.7854 42.3169 21.2573 41.701C20.7291 41.0854 18.683 40.2836 17.311 40.4605Z" fill="white"/>
<path d="M21.3145 36.2188C21.2715 36.7786 21.2216 37.3408 21.2984 38.1225C21.3596 38.7607 21.0495 39.2668 20.1533 39.9836C20.1533 39.9836 19.8249 40.0128 19.454 39.9051C19.4471 39.9051 19.4405 39.9029 19.4336 39.9007L19.5173 40.5145L19.5355 40.6446L19.5468 40.7386C19.5468 40.7386 19.5603 41.1326 19.094 41.2446C18.6255 41.3567 17.6638 40.9086 17.3107 40.4609C17.3107 40.4609 17.3671 38.7813 17.2248 38.1228C17.2248 38.1228 16.788 37.4085 16.5459 36.4299C16.306 35.4491 17.0482 34.4949 17.7388 34.1434C18.4315 33.794 20.5227 33.7828 21.1587 35.2117C21.1583 35.211 21.3578 35.6587 21.3145 36.2188Z" fill="#CACACA"/>
<path d="M21.3144 36.2189L21.278 36.216C21.2515 36.5633 21.222 36.9127 21.222 37.3157C21.222 37.5621 21.2329 37.8283 21.2624 38.1258C21.2671 38.1762 21.2697 38.2256 21.2697 38.2742C21.2693 38.5519 21.1903 38.8059 21.0087 39.0753C20.8267 39.3444 20.5413 39.6275 20.1307 39.9556L20.1536 39.9837L20.1503 39.9477H20.1489C20.1409 39.9484 20.1034 39.9509 20.0444 39.9509C19.9199 39.9509 19.7004 39.9387 19.4645 39.8702L19.4594 39.8688H19.4543V39.8724L19.4547 39.8688H19.4543V39.8724L19.4547 39.8688L19.4525 39.8684L19.4456 39.8663L19.3903 39.8479L19.482 40.5186L19.5002 40.6486L19.5362 40.6436L19.5002 40.6479L19.5115 40.7419L19.5475 40.7376L19.5111 40.7383V40.7387V40.7408C19.5111 40.7567 19.5082 40.8503 19.4543 40.9501C19.4274 41.0002 19.3877 41.0517 19.3291 41.0974C19.2702 41.1432 19.1919 41.1832 19.0863 41.2084C19.0405 41.2195 18.988 41.2249 18.9313 41.2246C18.6903 41.2249 18.367 41.1266 18.0682 40.9779C17.769 40.8295 17.4923 40.6306 17.3402 40.4372L17.3114 40.4595L17.3478 40.4606C17.3478 40.4602 17.3587 40.131 17.3587 39.7067C17.3587 39.4394 17.3544 39.1344 17.3398 38.8498C17.3252 38.5649 17.3012 38.3012 17.2608 38.1139L17.2594 38.1082L17.2561 38.1031C17.2561 38.1031 17.2546 38.1006 17.2513 38.0952C17.2037 38.0149 16.8069 37.3323 16.5812 36.4199C16.5503 36.2942 16.5361 36.1689 16.5361 36.0449C16.5361 35.6354 16.6926 35.2428 16.9241 34.9143C17.1552 34.5861 17.4614 34.3232 17.7551 34.1737C17.8665 34.1175 18.0187 34.0693 18.1967 34.0354C18.3747 34.0015 18.5793 33.9821 18.7958 33.9821C19.2272 33.9821 19.707 34.0599 20.1296 34.254C20.5522 34.4485 20.9173 34.7583 21.1248 35.2244L21.1252 35.2251C21.1335 35.2442 21.2842 35.5976 21.2839 36.0576C21.2839 36.1087 21.2821 36.1613 21.278 36.215L21.3144 36.2189L21.3508 36.2218C21.3552 36.1663 21.357 36.1119 21.357 36.059C21.357 35.5684 21.1929 35.1996 21.1918 35.1967C20.9763 34.7119 20.5952 34.3895 20.1605 34.1899C19.7255 33.99 19.2359 33.9111 18.7958 33.9111C18.5749 33.9111 18.3663 33.9309 18.1832 33.9659C18.0001 34.0008 17.8425 34.0502 17.7224 34.111C17.4162 34.267 17.1032 34.5368 16.8648 34.8747C16.6267 35.2122 16.464 35.6185 16.4636 36.0464C16.4636 36.1757 16.4785 36.3068 16.5106 36.4383C16.7541 37.4227 17.1927 38.1395 17.1938 38.1413L17.2251 38.1226L17.1895 38.1301C17.2284 38.3099 17.2528 38.5717 17.267 38.8545C17.2812 39.1372 17.2856 39.4412 17.2856 39.7078C17.2856 39.9192 17.2827 40.1073 17.2801 40.2423C17.2786 40.3097 17.2772 40.3641 17.2765 40.4015C17.2754 40.439 17.2746 40.4592 17.2746 40.4592L17.2743 40.4721L17.2823 40.4826C17.4457 40.6897 17.7286 40.8914 18.0351 41.0434C18.3416 41.1954 18.6706 41.2973 18.9309 41.2977C18.9924 41.2977 19.0503 41.2919 19.1031 41.2793C19.2177 41.252 19.3062 41.2073 19.3735 41.1551C19.4747 41.0765 19.5275 40.9807 19.5544 40.9015C19.5814 40.8222 19.5836 40.7592 19.5836 40.7416V40.7372V40.7354L19.5719 40.6393L19.5537 40.5092L19.47 39.8958L19.434 39.9005L19.4223 39.9347C19.4292 39.9369 19.4391 39.9408 19.4543 39.9412V39.9052L19.4442 39.9398C19.6895 40.0107 19.9155 40.0233 20.0448 40.0233C20.1147 40.0233 20.1562 40.0197 20.1573 40.0197L20.1682 40.0186L20.1769 40.0118C20.5904 39.6811 20.8813 39.3941 21.0698 39.1156C21.2584 38.8372 21.3436 38.5663 21.3432 38.2746C21.3432 38.2234 21.3407 38.1719 21.3356 38.1197C21.3064 37.8243 21.2955 37.5607 21.2955 37.3164C21.2955 36.917 21.3246 36.5698 21.3516 36.2222L21.3144 36.2189Z" fill="#696969"/>
<path d="M17.3886 37.2609C17.3886 37.2609 17.3926 37.2652 17.4003 37.2735C17.4261 37.3019 17.4913 37.3758 17.5495 37.4601C17.6081 37.544 17.6591 37.6391 17.6587 37.7064C17.6587 37.7169 17.6576 37.7266 17.6551 37.7356C17.6387 37.7954 17.6048 37.8296 17.5735 37.8638C17.5422 37.8977 17.5131 37.9326 17.5131 37.9906C17.5131 38.0184 17.5197 38.0511 17.5353 38.0911C17.6132 38.2946 17.6631 38.3789 17.6635 38.3793C17.666 38.3836 17.6715 38.385 17.6758 38.3825C17.6802 38.38 17.6817 38.3746 17.6791 38.3703C17.6791 38.3703 17.6762 38.3652 17.6704 38.3544C17.6529 38.3216 17.6107 38.2366 17.5524 38.0846C17.5375 38.0457 17.5317 38.0151 17.5317 37.9903C17.5317 37.9391 17.5561 37.9099 17.5874 37.8757C17.6183 37.8419 17.6554 37.8044 17.6729 37.7403C17.6758 37.7295 17.6773 37.7183 17.6773 37.7064C17.6769 37.6203 17.6078 37.5076 17.5393 37.4143C17.4709 37.3214 17.4025 37.249 17.4021 37.249C17.3988 37.2454 17.393 37.245 17.3894 37.2486C17.3853 37.2515 17.385 37.2573 17.3886 37.2609Z" fill="#414141"/>
<path d="M21.1015 36.4289C21.1015 36.4289 20.8328 36.345 20.4719 36.5968C20.4719 36.5968 20.5356 36.3097 20.7479 36.2747C20.9602 36.2402 21.1015 36.4289 21.1015 36.4289Z" fill="#414141"/>
<path d="M19.6516 36.6836C19.6516 36.6836 19.459 36.4523 19.1772 36.493C18.8954 36.5337 18.6824 36.6425 18.6824 36.6425C18.6824 36.6425 18.8062 36.3705 19.0811 36.3092C19.3563 36.2483 19.5763 36.4047 19.6516 36.6836Z" fill="#414141"/>
<path d="M20.5676 37.1357C20.5578 37.2765 20.5953 37.3936 20.6517 37.3976C20.7082 37.4016 20.762 37.2906 20.7722 37.1497C20.7821 37.0088 20.7446 36.8917 20.6881 36.8878C20.6317 36.8842 20.5774 36.9951 20.5676 37.1357Z" fill="#414141"/>
<path d="M19.3299 37.3039C19.3201 37.4448 19.3576 37.5619 19.414 37.5658C19.4705 37.5698 19.5244 37.4588 19.5346 37.3179C19.5444 37.1771 19.5069 37.06 19.4505 37.056C19.3937 37.052 19.3398 37.163 19.3299 37.3039Z" fill="#414141"/>
<path d="M20.2258 37.3294C20.2258 37.3294 20.2462 37.3647 20.2772 37.4202C20.3234 37.5034 20.3926 37.6328 20.4505 37.7574C20.5084 37.8817 20.5539 38.0032 20.5539 38.0658C20.5539 38.0842 20.5499 38.0968 20.5437 38.1026C20.5229 38.1231 20.4822 38.1458 20.4334 38.1674C20.3602 38.1995 20.2684 38.2298 20.1949 38.2514C20.1581 38.2622 20.1261 38.2712 20.1031 38.2773C20.0802 38.2835 20.0667 38.2871 20.0667 38.2871C20.062 38.2881 20.0591 38.2932 20.0602 38.2979C20.0613 38.3026 20.0664 38.3054 20.0711 38.3044C20.0711 38.3044 20.169 38.2799 20.2786 38.2442C20.3332 38.2262 20.3908 38.2056 20.4407 38.184C20.4905 38.162 20.5324 38.1393 20.5564 38.1156C20.5681 38.104 20.5721 38.0867 20.5721 38.0658C20.5721 38.019 20.551 37.9506 20.52 37.872C20.4272 37.6378 20.2419 37.3204 20.2419 37.3204C20.2393 37.3161 20.2338 37.3146 20.2295 37.3172C20.2251 37.3193 20.2233 37.3251 20.2258 37.3294Z" fill="#414141"/>
<path d="M20.1196 38.6409C20.1196 38.6409 20.1094 38.6423 20.0905 38.6438C20.0715 38.6452 20.0446 38.6466 20.0115 38.6466C19.8844 38.6466 19.6681 38.6247 19.4846 38.4975C19.4806 38.4946 19.4748 38.4957 19.4719 38.4996C19.4689 38.5036 19.47 38.5094 19.474 38.5122C19.6623 38.6423 19.8822 38.6647 20.0111 38.6647C20.0788 38.6647 20.1214 38.6585 20.1218 38.6585C20.1269 38.6578 20.1302 38.6531 20.1294 38.6484C20.1291 38.6438 20.1243 38.6402 20.1196 38.6409Z" fill="#414141"/>
<path d="M18.334 35.6544C18.334 35.6544 18.4894 35.9483 18.4046 36.606C18.3198 37.2638 18.2772 37.026 18.2207 37.3199C18.1643 37.6139 18.3198 37.8379 18.1217 38.0756C17.9237 38.3137 18.2207 37.4457 17.5983 36.9277C16.9758 36.4097 17.1316 37.9355 17.2871 38.2294C17.4425 38.5234 17.6973 38.6354 17.6973 38.6354L17.3013 39.0972C17.3013 39.0972 15.3916 38.2014 15.4907 36.3118C15.5897 34.4222 16.7072 33.9042 16.7072 33.9042C16.7072 33.9042 17.6409 32.6024 20.0029 33.2043C22.3654 33.8062 22.0756 35.7214 22.0542 36.0038C21.9977 36.7458 21.2621 36.7595 21.2621 36.7595C21.2621 36.7595 21.3327 35.9757 20.8234 35.5136C20.8234 35.5136 20.6818 35.8356 20.1868 35.9616C19.6917 36.0877 19.9323 35.6396 20.0313 35.4437C20.0313 35.4437 19.7485 35.8215 19.2957 35.8215C18.8432 35.8222 18.334 35.6544 18.334 35.6544Z" fill="#2D2D2D"/>
<path d="M19.5356 40.6443C19.3205 40.5884 18.9877 40.4627 18.5739 40.1897C17.8113 39.6858 17.9379 38.7341 17.9379 38.7341C18.2637 39.5046 19.2961 39.8403 19.2961 39.8403L19.4544 39.9051C19.4475 39.9051 19.4409 39.903 19.434 39.9008L19.5177 40.5146L19.5356 40.6443Z" fill="#414141"/>
<path d="M14.8636 41.8877C15.8595 41.7861 16.6177 42.8581 17.5795 44.7992C18.5412 46.7403 19.5597 49.7076 19.5597 49.7076C19.5597 49.7076 24.1051 49.2037 25.5761 48.0467C25.5761 48.0467 25.8968 46.8711 26.1232 46.5912C26.3496 46.3113 26.7831 46.106 27.0663 45.9565C27.3492 45.807 27.5377 45.6579 27.5377 45.6579L26.4249 48.5881C26.4249 48.5881 25.6704 49.2786 25.2557 49.6705C24.8408 50.0624 20.3896 52.3767 18.6169 51.9286C16.8442 51.4805 14.6372 46.8711 14.3922 45.7512C14.1472 44.6313 13.5812 42.0185 14.8636 41.8877Z" fill="#CACACA"/>
<path d="M14.8634 41.8876L14.8671 41.9233C14.9093 41.9189 14.9508 41.9168 14.9919 41.9168C15.2183 41.9168 15.432 41.9809 15.6417 42.1066C15.9562 42.295 16.2609 42.6235 16.5721 43.0798C16.8833 43.5359 17.2018 44.1194 17.5465 44.8146C18.0267 45.7831 18.5214 47.0096 18.8959 47.9933C19.0834 48.4853 19.2407 48.9165 19.351 49.2248C19.4063 49.379 19.4496 49.5025 19.4795 49.5872C19.5093 49.6722 19.525 49.7183 19.525 49.7183L19.5344 49.7457L19.5635 49.7424C19.5643 49.7424 20.7014 49.6164 22.0235 49.3451C22.6846 49.2097 23.3918 49.0379 24.027 48.8272C24.6622 48.6164 25.225 48.3672 25.5988 48.0736L25.6083 48.0664L25.6116 48.0549C25.6116 48.0549 25.6167 48.0365 25.6258 48.0041C25.6578 47.8899 25.7415 47.6007 25.8416 47.3096C25.8915 47.1641 25.9457 47.0186 25.9993 46.8943C26.0528 46.7704 26.1066 46.6678 26.1518 46.6119C26.2606 46.4772 26.4226 46.3576 26.5926 46.2539C26.763 46.1502 26.9413 46.0616 27.0833 45.9866C27.369 45.8357 27.559 45.6852 27.5605 45.6844L27.5379 45.6563L27.5037 45.6437L26.3909 48.5739L26.4251 48.5866L26.4004 48.5603C26.4004 48.5603 25.6458 49.2508 25.2305 49.643C25.209 49.6632 25.1733 49.6913 25.1256 49.7244C24.9458 49.8501 24.5967 50.0529 24.1468 50.2856C23.4716 50.6346 22.5681 51.0507 21.6588 51.3792C20.7498 51.708 19.8344 51.9486 19.1398 51.9483C18.9502 51.9483 18.7773 51.9303 18.6258 51.8921C18.1952 51.784 17.7278 51.4166 17.2706 50.9062C16.5841 50.1412 15.918 49.0577 15.4018 48.0614C15.1437 47.5632 14.9228 47.087 14.7549 46.6833C14.5871 46.2795 14.4728 45.9477 14.4277 45.7417C14.3014 45.1654 14.0906 44.1939 14.091 43.3738C14.091 42.988 14.1379 42.6361 14.2592 42.3775C14.3196 42.2478 14.3982 42.1419 14.4976 42.0644C14.5973 41.987 14.7182 41.9373 14.8678 41.9222L14.8634 41.8876L14.8598 41.8519C14.6982 41.8681 14.5627 41.9233 14.4521 42.0093C14.2865 42.1383 14.1784 42.3346 14.1114 42.5702C14.0444 42.8057 14.0178 43.082 14.0178 43.3756C14.0178 44.2073 14.23 45.1816 14.3564 45.7586C14.419 46.0439 14.6032 46.5421 14.8729 47.1404C15.2773 48.0372 15.8732 49.1553 16.5357 50.0929C16.8669 50.5619 17.2146 50.9855 17.5644 51.314C17.9142 51.6425 18.2658 51.8766 18.6076 51.963C18.7667 52.0034 18.9454 52.0214 19.1395 52.0214C19.6451 52.0214 20.2559 51.8982 20.8955 51.7084C21.8546 51.4238 22.8775 50.9891 23.6969 50.5921C24.1068 50.3937 24.4653 50.2042 24.7398 50.0475C24.877 49.9694 24.9931 49.8991 25.0845 49.8397C25.1759 49.7802 25.2418 49.7323 25.2807 49.696C25.4878 49.5004 25.7801 49.2295 26.0207 49.008C26.1409 48.897 26.2482 48.7987 26.3254 48.7277C26.364 48.6924 26.3949 48.664 26.4164 48.6442C26.4379 48.6244 26.4495 48.6139 26.4495 48.6139L26.4557 48.6082L27.618 45.5476L27.5146 45.6293L27.5128 45.6308C27.4921 45.647 27.3115 45.7857 27.0491 45.9243C26.9082 45.9985 26.7284 46.0879 26.5544 46.1938C26.3804 46.3 26.2122 46.4228 26.0946 46.568C26.0637 46.6062 26.0331 46.657 26.0022 46.7171C25.8937 46.9275 25.779 47.2563 25.6906 47.5337C25.6025 47.811 25.541 48.0365 25.541 48.0369L25.5763 48.0463L25.5537 48.0182C25.1919 48.3027 24.6349 48.5509 24.0041 48.7598C23.0577 49.0739 21.9449 49.3019 21.0694 49.4514C20.6315 49.5259 20.253 49.5811 19.984 49.6174C19.8493 49.6354 19.7423 49.6491 19.6687 49.6581C19.632 49.6625 19.6036 49.6661 19.5846 49.6682C19.5654 49.6704 19.5555 49.6715 19.5555 49.6715L19.5595 49.7071L19.5941 49.6956C19.5937 49.6949 18.5756 46.7276 17.6121 44.7829C17.1516 43.8536 16.7373 43.1223 16.3187 42.6206C16.1094 42.3699 15.8987 42.1761 15.6795 42.0446C15.4604 41.9132 15.2325 41.8444 14.9919 41.8447C14.9482 41.8447 14.9042 41.8469 14.8598 41.8516L14.8634 41.8876Z" fill="#696969"/>
<path d="M17.8532 52.5631C17.8532 52.5631 16.7688 56.3142 19.4847 58.2179C22.2006 60.1215 29.2169 55.8665 31.7064 52.955C31.7064 52.955 35.5161 58.1433 38.7602 59.7109L40.3069 58.2924C40.3069 58.2924 35.9311 51.9472 33.6302 50.4913C31.3292 49.0354 24.0112 51.8723 24.0112 51.8723C24.0112 51.8723 19.7675 52.8801 17.8532 52.5631Z" fill="#696969"/>
<path d="M45.4746 58.871C45.3235 58.8335 45.2107 58.983 45.0407 59.0201C44.871 59.0575 42.7587 59.7668 41.8719 59.9533L40.3067 58.2925L38.76 59.7109L40.3544 60.9749C40.5193 61.2753 40.8691 61.8512 41.3252 62.2492C41.9666 62.809 42.4758 62.5666 42.7587 62.3613C43.0415 62.156 43.5508 61.5962 44.06 61.204C44.5693 60.8121 45.286 60.0841 45.4746 59.5989C45.6631 59.1137 45.6253 58.9084 45.4746 58.871Z" fill="#CACACA"/>
<path d="M45.4742 58.871L45.483 58.836C45.4637 58.8313 45.4444 58.8288 45.4258 58.8292C45.388 58.8292 45.3526 58.8382 45.3195 58.8512C45.2697 58.871 45.2242 58.8994 45.1776 58.925C45.131 58.9509 45.084 58.974 45.0327 58.9851C45.0203 58.988 45.0017 58.9931 44.9766 59.0003C44.7877 59.0554 44.2173 59.2413 43.5897 59.435C42.9622 59.6292 42.2775 59.8313 41.8647 59.9181L41.8723 59.9534L41.8989 59.9289L40.3085 58.2417L38.7043 59.7131L40.3315 61.003L40.3544 60.9749L40.3224 60.9922C40.4884 61.2944 40.8393 61.8729 41.3008 62.2763C41.6001 62.5378 41.8763 62.6304 42.1155 62.6304C42.3972 62.6304 42.6237 62.5036 42.7798 62.3905C42.9251 62.2849 43.1227 62.0933 43.3491 61.879C43.5752 61.6647 43.8293 61.4273 44.0819 61.2328C44.3385 61.0354 44.6461 60.7544 44.914 60.4609C45.1819 60.1673 45.4102 59.8629 45.5081 59.6123C45.598 59.3806 45.638 59.211 45.638 59.0871C45.638 59.0179 45.6253 58.9621 45.5987 58.9192C45.5721 58.876 45.5303 58.8479 45.483 58.8364L45.4742 58.871L45.4655 58.9059C45.4975 58.9142 45.5197 58.9293 45.5368 58.9563C45.5539 58.9837 45.5656 59.0258 45.5656 59.0864C45.566 59.1948 45.5288 59.3587 45.4404 59.5856C45.3494 59.8201 45.1251 60.1223 44.8601 60.4119C44.5951 60.7019 44.2897 60.9806 44.0375 61.1752C43.7808 61.3725 43.5257 61.6114 43.2989 61.826C43.0728 62.0407 42.8745 62.232 42.7369 62.3318C42.5869 62.4405 42.3747 62.558 42.1155 62.5576C41.8956 62.5572 41.6386 62.4744 41.3489 62.2215C40.899 61.8289 40.5495 61.2558 40.3861 60.9572L40.3824 60.9508L38.8154 59.7084L40.3045 58.3429L41.8592 59.9926L41.8793 59.9883C42.3255 59.8943 43.075 59.6702 43.7357 59.4649C44.0659 59.3623 44.3738 59.2643 44.6093 59.1897C44.7273 59.1523 44.827 59.1209 44.9027 59.0975C44.9406 59.086 44.9723 59.0763 44.997 59.0691C45.0218 59.0619 45.0396 59.0568 45.0483 59.055C45.1313 59.0367 45.199 58.9952 45.2598 58.961C45.29 58.9437 45.3188 58.9282 45.3465 58.9174C45.3741 58.9066 45.4 58.9005 45.4258 58.9005C45.4386 58.9005 45.4517 58.9019 45.4655 58.9055L45.4742 58.871Z" fill="#696969"/>
<path d="M30.37 59.2163C30.37 59.2163 30.0486 60.4165 29.856 60.7335C29.6631 61.0504 28.9136 61.8656 29.0421 62.341C29.1706 62.8165 29.7082 63.0063 30.5651 63.2102C31.422 63.414 31.5479 63.9021 32.0834 64.106C32.6189 64.3099 33.2348 64.3967 33.3847 64.2832C33.5347 64.1701 33.7619 64.2645 34.0356 63.9659C34.3221 63.6529 33.7149 63.4061 33.3942 63.1353C33.1867 62.9602 32.6411 62.4314 32.0197 61.8879C31.3983 61.3444 32.0455 59.8971 32.0455 59.8971L30.37 59.2163Z" fill="#CACACA"/>
<path d="M30.3701 59.2163L30.3348 59.207C30.3348 59.207 30.3297 59.2257 30.3206 59.2588C30.2885 59.3755 30.2059 59.672 30.1102 59.9738C30.0625 60.1247 30.0112 60.2768 29.962 60.4079C29.9129 60.539 29.8645 60.6496 29.8248 60.7148C29.7818 60.7854 29.7083 60.8848 29.622 61.0004C29.4928 61.174 29.3363 61.3851 29.2111 61.599C29.0862 61.8134 28.9912 62.0306 28.9908 62.2236C28.9908 62.2672 28.9959 62.3097 29.0069 62.3504C29.0404 62.4747 29.1015 62.5817 29.187 62.6731C29.3155 62.8107 29.4975 62.9148 29.7272 63.0045C29.9569 63.0939 30.2347 63.1684 30.5565 63.2451C30.9787 63.346 31.2171 63.5142 31.421 63.6853C31.5229 63.771 31.6157 63.8578 31.718 63.9367C31.8203 64.0156 31.9321 64.0866 32.07 64.1392C32.4479 64.2829 32.8625 64.3686 33.1362 64.369C33.1955 64.369 33.2483 64.365 33.2938 64.356C33.339 64.347 33.3772 64.3337 33.4067 64.3113C33.4387 64.2872 33.4755 64.2735 33.5199 64.2623C33.5865 64.2454 33.6688 64.2357 33.7616 64.2008C33.8544 64.1658 33.9563 64.1053 34.0623 63.9897C34.1187 63.9284 34.1467 63.864 34.1463 63.8002C34.1463 63.7289 34.1125 63.6637 34.063 63.6039C33.9884 63.5142 33.8751 63.4317 33.7565 63.35C33.6378 63.2686 33.5133 63.1882 33.4176 63.1072C33.3153 63.0207 33.1267 62.8446 32.8869 62.6227C32.647 62.4008 32.3547 62.1325 32.0438 61.8602C31.9484 61.777 31.8847 61.6711 31.844 61.5501C31.8032 61.4294 31.7865 61.2936 31.7865 61.1535C31.7865 60.8614 31.8593 60.5494 31.9324 60.3121C31.9692 60.1932 32.0056 60.0927 32.0333 60.0221C32.0471 59.9868 32.0584 59.9591 32.0664 59.94C32.0704 59.9306 32.0737 59.9234 32.0755 59.9184C32.0777 59.9137 32.0788 59.9112 32.0788 59.9112L32.094 59.8773L30.3457 59.1663L30.3351 59.2059L30.3701 59.2163L30.3563 59.2495L32.0318 59.9306L32.0456 59.8975L32.0125 59.8831C32.0121 59.8841 31.9379 60.0502 31.8633 60.2919C31.789 60.5336 31.714 60.8505 31.714 61.1546C31.714 61.3004 31.7311 61.4434 31.7752 61.5742C31.8188 61.7046 31.8898 61.8227 31.9961 61.9157C32.3063 62.1869 32.5978 62.4549 32.8377 62.6768C33.0776 62.8986 33.2658 63.0744 33.371 63.1634C33.5057 63.2768 33.6851 63.3835 33.8289 63.4908C33.901 63.5445 33.964 63.5981 34.0073 63.6504C34.051 63.7033 34.0743 63.753 34.0739 63.8009C34.0739 63.8438 34.0564 63.8892 34.0084 63.9418C33.8759 64.0858 33.7605 64.132 33.6546 64.1593C33.6018 64.1727 33.5512 64.1809 33.502 64.1932C33.4533 64.2054 33.4056 64.2224 33.3623 64.2548C33.3466 64.2667 33.3182 64.2786 33.2793 64.2861C33.2407 64.2937 33.1919 64.2976 33.1358 64.2976C32.8767 64.298 32.4657 64.2134 32.0959 64.0725C31.9663 64.0232 31.8614 63.9565 31.7624 63.8805C31.6143 63.7664 31.4803 63.6291 31.3016 63.5005C31.1229 63.3719 30.8986 63.2527 30.5728 63.1753C30.1451 63.0737 29.7986 62.9754 29.5463 62.8457C29.42 62.7808 29.3177 62.7084 29.2395 62.6245C29.1612 62.5406 29.107 62.4451 29.076 62.332C29.0669 62.2982 29.0626 62.2622 29.0626 62.224C29.0626 62.1112 29.1011 61.9801 29.1638 61.8436C29.2577 61.6383 29.404 61.4207 29.5441 61.2273C29.6843 61.0339 29.8172 60.8653 29.886 60.7522C29.9369 60.6683 29.993 60.5332 30.0505 60.3751C30.223 59.9014 30.4036 59.2264 30.4039 59.2257L30.3701 59.2163L30.3563 59.2495L30.3701 59.2163Z" fill="#696969"/>
<path d="M33.1674 42.223L31.3863 47.318L31.0289 48.3301C31.0041 48.3975 30.9473 48.449 30.8771 48.4667L26.3302 49.6427C26.2374 49.6672 26.1515 49.6294 26.1038 49.5642C26.0608 49.5105 26.0448 49.4367 26.0699 49.3625L26.312 48.6817L28.5277 42.2518C28.5572 42.1668 28.634 42.1085 28.7247 42.1063L32.5927 41.9518L32.9527 41.9384C33.1063 41.932 33.2173 42.0796 33.1674 42.223Z" fill="#979797"/>
<path d="M33.1674 42.2229L31.3863 47.3179L31.0288 48.3301C31.0041 48.3974 30.9473 48.4489 30.877 48.4666L26.3302 49.6426C26.2374 49.6671 26.1514 49.6293 26.1038 49.5641C26.9297 48.8898 29.1888 46.9663 30.707 44.9103C31.7889 43.4458 32.3298 42.4938 32.5923 41.952L32.9523 41.9387C33.1062 41.9319 33.2173 42.0795 33.1674 42.2229Z" fill="#7D7D7D"/>
<path d="M32.2463 45.1758C32.2441 45.1722 32.2408 45.1693 32.2386 45.1657C32.2921 45.1121 32.3624 45.0198 32.3344 44.924C32.291 44.7753 32.069 44.6813 31.756 44.6892C31.4429 44.6975 31.2791 44.8019 31.3446 44.866C31.4101 44.9302 31.5845 45.0105 31.7785 44.9838L31.8226 45.0364C31.7625 45.0415 31.6988 45.0508 31.6311 45.0674C31.3271 45.1409 31.1892 45.2774 31.2667 45.3264C31.3446 45.3754 31.5321 45.4175 31.7159 45.3509L31.7592 45.3844C31.7126 45.3901 31.6642 45.3981 31.6136 45.4103C31.3097 45.4838 31.1717 45.6203 31.2492 45.6693C31.3271 45.7183 31.5146 45.7604 31.6984 45.6938L31.8 45.773C31.6267 45.8274 31.4345 45.9081 31.4684 45.9704C31.5179 46.0615 31.8007 46.0824 31.8007 46.0824L31.6806 46.4534C31.6806 46.4534 32.0555 46.2784 32.1826 46.0896C32.2561 45.9809 32.2339 45.8663 32.1749 45.7928C32.2172 45.7323 32.2812 45.616 32.2284 45.5191C32.2172 45.4986 32.2011 45.4805 32.1826 45.464C32.223 45.4092 32.3031 45.2806 32.2463 45.1758Z" fill="#CACACA"/>
<path d="M32.2462 45.176L32.2782 45.1587C32.2749 45.1529 32.272 45.1493 32.2702 45.1475L32.2688 45.1457L32.2684 45.1461L32.2688 45.1457L32.2684 45.1461L32.2688 45.1457L32.2586 45.1529L32.2691 45.1464L32.2688 45.1457L32.2586 45.1529L32.2691 45.1464L32.2382 45.1655L32.264 45.1907C32.2881 45.1666 32.3154 45.1353 32.3376 45.0978C32.3594 45.0603 32.3765 45.0167 32.3765 44.9685C32.3765 44.9505 32.374 44.9321 32.3689 44.9137C32.3565 44.8712 32.3321 44.8334 32.2986 44.801C32.248 44.7524 32.1778 44.7156 32.0926 44.6908C32.007 44.6659 31.9062 44.6526 31.7934 44.6526C31.7806 44.6526 31.7679 44.6526 31.7551 44.6529C31.6183 44.6565 31.5083 44.6778 31.4301 44.7077C31.3908 44.7228 31.3595 44.7398 31.3358 44.7596C31.3241 44.7697 31.314 44.7805 31.3067 44.7927C31.2994 44.805 31.2943 44.8197 31.2943 44.8348C31.2939 44.8561 31.3045 44.8766 31.3194 44.891C31.3529 44.9235 31.405 44.9559 31.4708 44.9815C31.5364 45.0067 31.6157 45.0247 31.702 45.0247C31.7289 45.0247 31.7562 45.0229 31.7839 45.0193L31.7788 44.9836L31.7508 45.0067L31.7948 45.0593L31.8228 45.0362L31.8199 45.0002C31.7581 45.0052 31.6925 45.0149 31.6226 45.0319C31.4956 45.0625 31.3959 45.1043 31.326 45.1475C31.291 45.1691 31.2634 45.1914 31.2433 45.2145C31.2331 45.226 31.2251 45.2379 31.2189 45.2505C31.2131 45.2631 31.2091 45.2765 31.2091 45.2909C31.2091 45.3038 31.2128 45.3172 31.2197 45.3287C31.2266 45.3402 31.2364 45.3492 31.2473 45.3564C31.2761 45.3744 31.3147 45.3903 31.3602 45.4018C31.4057 45.4133 31.4588 45.4209 31.5156 45.4209C31.5826 45.4209 31.6558 45.4104 31.7282 45.3842L31.7158 45.3503L31.6933 45.3788L31.7366 45.4122L31.7591 45.3838L31.7548 45.3481C31.7071 45.3539 31.6576 45.3618 31.6048 45.3748C31.4778 45.4054 31.378 45.4472 31.3081 45.4904C31.2732 45.512 31.2455 45.5344 31.2255 45.5574C31.2153 45.5689 31.2073 45.5808 31.2011 45.5934C31.1953 45.606 31.1913 45.6194 31.1913 45.6338C31.1913 45.6467 31.1949 45.6601 31.2018 45.6716C31.2088 45.6831 31.2186 45.6921 31.2295 45.6993C31.2583 45.7173 31.2968 45.7332 31.3423 45.7447C31.3878 45.7562 31.441 45.7638 31.4978 45.7638C31.5648 45.7638 31.6379 45.7534 31.7104 45.7271L31.698 45.6932L31.6754 45.7217L31.777 45.8009L31.7995 45.7725L31.7886 45.7382C31.7074 45.7638 31.6226 45.7948 31.5557 45.8279C31.5222 45.8449 31.493 45.8618 31.4705 45.8809C31.4592 45.8906 31.4494 45.9003 31.4414 45.9122C31.4337 45.9241 31.4275 45.9385 31.4275 45.9547C31.4275 45.9655 31.4304 45.977 31.4359 45.9868C31.4454 46.0041 31.4592 46.0181 31.4745 46.0293C31.5014 46.0491 31.5345 46.0631 31.5691 46.0747C31.6732 46.1085 31.7959 46.1172 31.7974 46.1175L31.7999 46.0815L31.7653 46.0703L31.6194 46.5202L31.6951 46.4849C31.6958 46.4846 31.7904 46.4403 31.9022 46.3718C32.0136 46.303 32.1421 46.2115 32.212 46.1085C32.2484 46.0545 32.2648 45.9976 32.2644 45.9439C32.2644 45.8769 32.24 45.816 32.2025 45.7696L32.1741 45.7919L32.204 45.8124C32.2203 45.789 32.24 45.7573 32.2557 45.7209C32.2713 45.6846 32.2837 45.6428 32.2837 45.5988C32.2837 45.5668 32.2768 45.5329 32.2597 45.5012C32.2455 45.4756 32.2265 45.4548 32.2061 45.4367L32.1818 45.4634L32.2112 45.4847C32.2276 45.4627 32.2495 45.4299 32.268 45.3906C32.2862 45.3514 32.3015 45.3053 32.3015 45.2559C32.3015 45.2235 32.2946 45.19 32.2775 45.1583L32.2462 45.176L32.2142 45.1929C32.2251 45.2131 32.2294 45.2339 32.2294 45.2563C32.2294 45.2901 32.2182 45.3272 32.2025 45.3607C32.1869 45.3939 32.1672 45.4234 32.153 45.4425L32.1333 45.4688L32.1577 45.4908C32.1745 45.5055 32.1876 45.5203 32.196 45.5362C32.2069 45.5563 32.2112 45.5772 32.2112 45.5996C32.2112 45.6302 32.2021 45.6629 32.189 45.6932C32.1759 45.7235 32.1588 45.7516 32.1443 45.7721L32.129 45.7941L32.1457 45.815C32.1738 45.8495 32.192 45.8953 32.192 45.9443C32.192 45.9839 32.1807 46.026 32.1515 46.0689C32.0944 46.1546 31.9714 46.2454 31.864 46.311C31.8101 46.3441 31.7599 46.3715 31.7235 46.3906C31.7053 46.3999 31.6903 46.4075 31.6801 46.4125C31.6751 46.415 31.6711 46.4168 31.6685 46.4183L31.6645 46.4201L31.6801 46.4525L31.7147 46.4637L31.8491 46.0491L31.8032 46.0458L31.8003 46.0455C31.7857 46.0444 31.7162 46.0376 31.6467 46.0214C31.6121 46.0134 31.5771 46.0026 31.5502 45.99C31.5229 45.9778 31.5051 45.9623 31.5 45.9526L31.4956 45.9547H31.5003L31.5 45.9526L31.4956 45.9547H31.5003H31.4967L31.5003 45.9554V45.9547H31.4967L31.5003 45.9554L31.5011 45.954C31.5029 45.9493 31.5138 45.9371 31.5324 45.9245C31.56 45.905 31.6033 45.8838 31.6525 45.8632C31.7016 45.8431 31.757 45.8236 31.8108 45.8067L31.8764 45.7861L31.7045 45.6525L31.6856 45.6593C31.6219 45.6824 31.5575 45.6914 31.4978 45.6914C31.4472 45.6914 31.4002 45.6849 31.3605 45.6748C31.3209 45.6648 31.2885 45.6511 31.2685 45.6385C31.2652 45.6363 31.2645 45.6349 31.2641 45.6349V45.6338C31.2641 45.6327 31.2644 45.6295 31.267 45.6244C31.2714 45.6154 31.2819 45.6014 31.2994 45.5862C31.3522 45.5398 31.4632 45.4832 31.6219 45.445C31.6711 45.4331 31.7176 45.4256 31.7635 45.4198L31.8501 45.409L31.7224 45.3096L31.7034 45.3164C31.6397 45.3395 31.5753 45.3485 31.5156 45.3485C31.465 45.3485 31.4181 45.342 31.3784 45.3319C31.3387 45.3218 31.3063 45.3082 31.2863 45.2955C31.283 45.2934 31.2823 45.2919 31.2819 45.2919V45.2909C31.2819 45.2898 31.2823 45.2865 31.2848 45.2815C31.2892 45.2725 31.2998 45.2584 31.3172 45.2433C31.37 45.1968 31.481 45.1403 31.6397 45.1021C31.7056 45.0863 31.7675 45.0769 31.8258 45.0722L31.8953 45.0665L31.7937 44.9451L31.7737 44.948C31.7493 44.9512 31.7253 44.9526 31.7016 44.9526C31.6259 44.9526 31.5549 44.9368 31.4971 44.9145C31.4392 44.8921 31.3937 44.8629 31.3704 44.8399C31.366 44.8352 31.3671 44.8352 31.3667 44.8352C31.3667 44.8352 31.3667 44.8334 31.3689 44.8298C31.3726 44.8233 31.3842 44.8114 31.4035 44.7999C31.4326 44.7823 31.4785 44.7642 31.5382 44.7506C31.5979 44.7369 31.6714 44.7271 31.757 44.725C31.7693 44.7246 31.7813 44.7246 31.7934 44.7246C31.936 44.7246 32.0562 44.7473 32.1432 44.7855C32.1869 44.8046 32.2218 44.8273 32.2476 44.8525C32.2735 44.8777 32.2906 44.9047 32.299 44.9339C32.3022 44.9458 32.3041 44.9573 32.3041 44.9688C32.3041 44.9998 32.2928 45.0319 32.2749 45.0618C32.2571 45.0917 32.2334 45.1194 32.2123 45.1407L32.192 45.1608L32.2072 45.185C32.2105 45.19 32.2131 45.1925 32.2142 45.194L32.2149 45.1947L32.2265 45.186L32.2138 45.1929L32.2149 45.1947L32.2265 45.186L32.2138 45.1929L32.2462 45.176Z" fill="#696969"/>
<path d="M30.9204 45.638C30.7934 46.054 30.4494 46.3195 30.152 46.2305C29.8546 46.1416 29.717 45.7324 29.8441 45.316C29.9711 44.9 30.3151 44.6345 30.6125 44.7235C30.9099 44.8124 31.0475 45.222 30.9204 45.638Z" fill="#7D7D7D"/>
<path d="M44.2596 62.3679C43.3317 66.334 39.1696 69.0841 31.7438 69.5837C16.7498 70.5916 8.48888 69.6957 5.54657 62.6409C4.88116 61.0463 4.62308 58.986 4.65948 56.7351C5.79119 57.1832 7.89809 58.4079 10.1863 61.6889C13.581 66.5599 20.4274 69.0236 28.6886 67.9596C36.7274 66.9255 41.607 65.7833 44.2596 62.3679Z" fill="#696969"/>
</svg>
