<svg width="55" height="55" viewBox="0 0 55 55" fill="none" xmlns="http://www.w3.org/2000/svg">
<circle cx="27.452" cy="27.452" r="27.452" fill="#F1F1F1"/>
<path fill-rule="evenodd" clip-rule="evenodd" d="M48.5332 45.037C52.5106 40.2741 54.904 34.1426 54.904 27.452C54.904 12.2907 42.6134 0 27.452 0C12.2907 0 0 12.2907 0 27.452C0 34.4327 2.60556 40.8049 6.8972 45.649C10.8394 42.154 16.025 40.0286 21.6982 40.0286H34.4537C39.7865 40.0286 44.6892 41.9075 48.5332 45.037ZM28.076 33.6582C20.1644 33.6582 13.7261 27.2272 13.7261 19.3247C13.7261 11.4222 20.1644 4.99119 28.076 4.99119C35.9876 4.99119 42.4259 11.4222 42.4259 19.3247C42.4259 27.2272 35.9876 33.6582 28.076 33.6582Z" fill="#CACACA"/>
</svg>
