<svg width="17" height="17" viewBox="0 0 17 17" fill="none" xmlns="http://www.w3.org/2000/svg">
<path d="M13.9626 12.65C15.2416 11.2619 15.1128 9.47926 15.1088 9.45892V7.42549V4.03645C15.1088 3.6623 14.8058 3.35864 14.431 3.35864H10.3641C9.61649 3.35864 9.00849 3.96664 9.00849 4.71426V9.45892C9.00849 9.83307 9.31147 10.1367 9.6863 10.1367H10.3641H11.7726C11.7584 10.4092 11.6892 10.7549 11.4818 11.083C11.1375 11.6259 10.4888 11.9966 9.55277 12.1837L9.00849 12.2922V14.2036H9.6863C11.5726 14.2036 13.0116 13.681 13.9626 12.65ZM6.50196 12.65C7.78166 11.2619 7.6522 9.47926 7.64813 9.45892V7.42549V4.03645C7.64813 3.6623 7.34515 3.35864 6.97032 3.35864H2.90347C2.15585 3.35864 1.54785 3.96664 1.54785 4.71426V9.45892C1.54785 9.83307 1.85083 10.1367 2.22566 10.1367H2.90347H4.31196C4.29772 10.4092 4.22859 10.7549 4.02118 11.083C3.67685 11.6259 3.02819 11.9966 2.09213 12.1837L1.54785 12.2922V14.2036H2.22566C4.112 14.2036 5.55099 13.681 6.50196 12.65Z" fill="#CACACA"/>
</svg>
